<?xml version="1.0" encoding="UTF-8" standalone="no"?>
<!-- Created with Inkscape (http://www.inkscape.org/) -->

<svg
   xmlns:dc="http://purl.org/dc/elements/1.1/"
   xmlns:cc="http://creativecommons.org/ns#"
   xmlns:rdf="http://www.w3.org/1999/02/22-rdf-syntax-ns#"
   xmlns:svg="http://www.w3.org/2000/svg"
   xmlns="http://www.w3.org/2000/svg"
   xmlns:sodipodi="http://sodipodi.sourceforge.net/DTD/sodipodi-0.dtd"
   xmlns:inkscape="http://www.inkscape.org/namespaces/inkscape"
   width="91.440002mm"
   height="128.5mm"
   viewBox="0 0 91.440004 128.5"
   version="1.1"
   id="svg8"
   inkscape:version="0.92.5 (2060ec1f9f, 2020-04-08)"
   sodipodi:docname="AffineTransform.svg">
  <defs
     id="defs2" />
  <sodipodi:namedview
     id="base"
     pagecolor="#ffffff"
     bordercolor="#666666"
     borderopacity="1.0"
     inkscape:pageopacity="0.0"
     inkscape:pageshadow="2"
     inkscape:zoom="0.98994949"
     inkscape:cx="168.59384"
     inkscape:cy="190.0421"
     inkscape:document-units="mm"
     inkscape:current-layer="layer1"
     showgrid="false"
     inkscape:window-width="1366"
     inkscape:window-height="720"
     inkscape:window-x="0"
     inkscape:window-y="0"
     inkscape:window-maximized="1"
     fit-margin-top="0"
     fit-margin-left="0"
     fit-margin-right="0"
     fit-margin-bottom="0" />
  <metadata
     id="metadata5">
    <rdf:RDF>
      <cc:Work
         rdf:about="">
        <dc:format>image/svg+xml</dc:format>
        <dc:type
           rdf:resource="http://purl.org/dc/dcmitype/StillImage" />
        <dc:title></dc:title>
      </cc:Work>
    </rdf:RDF>
  </metadata>
  <g
     inkscape:label="Layer 1"
     inkscape:groupmode="layer"
     id="layer1"
     transform="translate(0,-168.5)">
    <rect
       style="opacity:1;fill:#4a412a;fill-opacity:1;stroke:none;stroke-width:0.90610462;stroke-linejoin:bevel;stroke-miterlimit:4;stroke-dasharray:none;stroke-dashoffset:0;stroke-opacity:1;paint-order:fill markers stroke"
       id="rect817"
       width="91.440002"
       height="128.5"
       x="0"
       y="168.5" />
    <g
       aria-label="X"
       inkscape:transform-center-x="-1.0690781"
       inkscape:transform-center-y="2.7338664e-06"
       style="font-style:normal;font-variant:normal;font-weight:500;font-stretch:normal;font-size:5.64444447px;line-height:1.25;font-family:aakar;-inkscape-font-specification:'aakar, Medium';font-variant-ligatures:normal;font-variant-caps:normal;font-variant-numeric:normal;font-feature-settings:normal;text-align:start;letter-spacing:0px;word-spacing:0px;writing-mode:lr-tb;text-anchor:start;fill:#b5bed5;fill-opacity:1;stroke:none;stroke-width:0.26458332"
       id="text4585"
       transform="translate(52.537447,93.385142)">
      <path
         d="m 11.176649,183.22155 v 0.10473 q -0.242534,0 -0.374826,0.0772 -0.170877,0.0992 -0.446485,0.44097 l -0.8047738,1.00321 1.0583328,1.51033 q 0.165365,0.23702 0.275608,0.32522 0.115755,0.0827 0.336241,0.0827 v 0.10473 H 9.5836371 v -0.10473 q 0.1929253,0 0.253559,-0.011 0.1708769,-0.0276 0.1708769,-0.17639 0,-0.0661 -0.1047311,-0.24805 -0.071658,-0.12127 -0.1763889,-0.27561 l -0.5236545,-0.7717 -0.6559461,0.8158 q -0.1378039,0.17088 -0.1874132,0.24253 -0.099219,0.14332 -0.099219,0.22049 0,0.11575 0.1157552,0.15985 0.1157552,0.0441 0.3031684,0.0441 v 0.10473 H 7.3953124 v -0.10473 q 0.2480469,0 0.4354601,-0.19293 0.060634,-0.0606 0.3638021,-0.43546 l 0.865408,-1.06384 -0.6008247,-0.88195 Q 8.1229166,183.7011 7.8693576,183.45857 7.7315537,183.32628 7.4614582,183.32628 v -0.10473 h 1.6646702 v 0.10473 q -0.2204861,0 -0.253559,0.006 -0.1653646,0.0276 -0.1653646,0.17087 0,0.0827 0.099219,0.25908 0.1047309,0.17638 0.3693143,0.55672 l 0.2315104,0.32522 0.6228725,-0.76068 q 0.06615,-0.0882 0.121268,-0.15985 0.09922,-0.1378 0.09922,-0.21497 0,-0.11576 -0.104731,-0.14883 -0.09922,-0.0331 -0.2811198,-0.0331 v -0.10473 z"
         style="stroke-width:0.26458332"
         id="path1631"
         inkscape:connector-curvature="0" />
    </g>
    <g
       aria-label="Y "
       inkscape:transform-center-x="-1.0690781"
       inkscape:transform-center-y="2.7338664e-06"
       style="font-style:normal;font-variant:normal;font-weight:500;font-stretch:normal;font-size:5.64444447px;line-height:1.25;font-family:aakar;-inkscape-font-specification:'aakar, Medium';font-variant-ligatures:normal;font-variant-caps:normal;font-variant-numeric:normal;font-feature-settings:normal;text-align:start;letter-spacing:0px;word-spacing:0px;writing-mode:lr-tb;text-anchor:start;fill:#b5bed5;fill-opacity:1;stroke:none;stroke-width:0.26458332"
       id="text4585-8"
       transform="translate(59.945784,74.335134)">
      <path
         d="m 10.261283,202.26662 v 0.10473 q -0.248047,0.0276 -0.4023867,0.17088 -0.148828,0.1378 -0.35829,0.4575 l -0.8157984,1.24575 v 1.06936 q 0,0.30868 0.09922,0.40239 0.09922,0.0937 0.4685327,0.0937 v 0.10473 H 7.5658407 v -0.10473 q 0.3803385,0 0.4795575,-0.12127 0.07717,-0.0937 0.07717,-0.43546 v -0.95911 L 7.400476,203.23676 Q 7.0587226,202.73515 6.8382365,202.50364 6.711457,202.37135 6.5075074,202.37135 v -0.10473 h 1.5434028 v 0.10473 q -0.165365,0 -0.2811198,0.0221 -0.1102431,0.0165 -0.1102431,0.14883 0,0.0441 0.027561,0.11575 0.033073,0.0717 0.066146,0.12127 l 0.8157986,1.2237 0.7882377,-1.24575 q 0.0441,-0.0717 0.06063,-0.10473 0.01654,-0.0386 0.01654,-0.0992 0,-0.11576 -0.104731,-0.14883 -0.104731,-0.0331 -0.275608,-0.0331 v -0.10473 z"
         style="stroke-width:0.26458332"
         id="path1634"
         inkscape:connector-curvature="0" />
    </g>
    <g
       id="g974"
       transform="rotate(-90,8.5846642,179.20631)">
      <circle
         r="5.25"
         cy="192.86272"
         cx="8.8492508"
         id="path1054-6"
         style="opacity:1;fill:#1a160e;fill-opacity:1;stroke:none;stroke-width:1.34206676;stroke-linejoin:round;stroke-miterlimit:4;stroke-dasharray:none;stroke-dashoffset:0;stroke-opacity:1;paint-order:fill markers stroke" />
      <circle
         r="5.25"
         cy="201.30748"
         cx="8.8492508"
         id="path1054-4-0"
         style="opacity:1;fill:#1a160e;fill-opacity:1;stroke:none;stroke-width:1.34206676;stroke-linejoin:round;stroke-miterlimit:4;stroke-dasharray:none;stroke-dashoffset:0;stroke-opacity:1;paint-order:fill markers stroke" />
      <circle
         r="5.25"
         cy="180.91734"
         cx="8.8492508"
         id="path1054-3-4"
         style="opacity:1;fill:#1a160e;fill-opacity:1;stroke:none;stroke-width:1.34206688;stroke-linejoin:round;stroke-miterlimit:4;stroke-dasharray:none;stroke-dashoffset:0;stroke-opacity:1;paint-order:fill markers stroke" />
      <rect
         y="192.13423"
         x="3.5992489"
         height="8"
         width="10.5"
         id="rect1113-8"
         style="opacity:1;fill:#1a160e;fill-opacity:1;stroke:none;stroke-width:0.7671234;stroke-linejoin:round;stroke-miterlimit:4;stroke-dasharray:none;stroke-dashoffset:0;stroke-opacity:1;paint-order:fill markers stroke" />
      <rect
         y="184.23784"
         x="7.8992534"
         height="5.0781207"
         width="1.6036172"
         id="rect1130-8"
         style="opacity:1;fill:#1a160e;fill-opacity:1;stroke:none;stroke-width:0.88836384;stroke-linejoin:round;stroke-miterlimit:4;stroke-dasharray:none;stroke-dashoffset:0;stroke-opacity:1;paint-order:fill markers stroke" />
    </g>
    <g
       id="g967"
       transform="rotate(-90,58.445464,257.06669)">
      <circle
         transform="scale(1,-1)"
         r="5.25"
         cy="-267.91144"
         cx="28.595758"
         id="path1054"
         style="opacity:1;fill:#1a160e;fill-opacity:1;stroke:none;stroke-width:1.34206676;stroke-linejoin:round;stroke-miterlimit:4;stroke-dasharray:none;stroke-dashoffset:0;stroke-opacity:1;paint-order:fill markers stroke" />
      <circle
         transform="scale(1,-1)"
         r="5.25"
         cy="-259.46643"
         cx="28.595758"
         id="path1054-4"
         style="opacity:1;fill:#1a160e;fill-opacity:1;stroke:none;stroke-width:1.34206676;stroke-linejoin:round;stroke-miterlimit:4;stroke-dasharray:none;stroke-dashoffset:0;stroke-opacity:1;paint-order:fill markers stroke" />
      <rect
         transform="scale(1,-1)"
         y="-268.63989"
         x="23.345749"
         height="8"
         width="10.5"
         id="rect1113"
         style="opacity:1;fill:#1a160e;fill-opacity:1;stroke:none;stroke-width:0.7671234;stroke-linejoin:round;stroke-miterlimit:4;stroke-dasharray:none;stroke-dashoffset:0;stroke-opacity:1;paint-order:fill markers stroke" />
      <rect
         transform="scale(1,-1)"
         y="-276.53632"
         x="27.64576"
         height="5.0781207"
         width="1.6036172"
         id="rect1130"
         style="opacity:1;fill:#1a160e;fill-opacity:1;stroke:none;stroke-width:0.88836384;stroke-linejoin:round;stroke-miterlimit:4;stroke-dasharray:none;stroke-dashoffset:0;stroke-opacity:1;paint-order:fill markers stroke" />
      <circle
         transform="scale(1,-1)"
         r="5.25"
         cy="-279.53748"
         cx="28.499411"
         id="path1054-3-3"
         style="opacity:1;fill:#1a160e;fill-opacity:1;stroke:none;stroke-width:1.34206688;stroke-linejoin:round;stroke-miterlimit:4;stroke-dasharray:none;stroke-dashoffset:0;stroke-opacity:1;paint-order:fill markers stroke" />
    </g>
    <g
       aria-label="X"
       inkscape:transform-center-x="-1.0690781"
       inkscape:transform-center-y="2.7338664e-06"
       style="font-style:normal;font-variant:normal;font-weight:500;font-stretch:normal;font-size:5.64444447px;line-height:1.25;font-family:aakar;-inkscape-font-specification:'aakar, Medium';font-variant-ligatures:normal;font-variant-caps:normal;font-variant-numeric:normal;font-feature-settings:normal;text-align:start;letter-spacing:0px;word-spacing:0px;writing-mode:lr-tb;text-anchor:start;fill:#b5bed5;fill-opacity:1;stroke:none;stroke-width:0.26458332"
       id="text4585-4"
       transform="translate(-2.1340841,30.711019)">
      <path
         d="m 11.176649,183.22155 v 0.10473 q -0.242534,0 -0.374826,0.0772 -0.170877,0.0992 -0.446485,0.44097 l -0.8047738,1.00321 1.0583328,1.51033 q 0.165365,0.23702 0.275608,0.32522 0.115755,0.0827 0.336241,0.0827 v 0.10473 H 9.5836371 v -0.10473 q 0.1929253,0 0.253559,-0.011 0.1708769,-0.0276 0.1708769,-0.17639 0,-0.0661 -0.1047311,-0.24805 -0.071658,-0.12127 -0.1763889,-0.27561 l -0.5236545,-0.7717 -0.6559461,0.8158 q -0.1378039,0.17088 -0.1874132,0.24253 -0.099219,0.14332 -0.099219,0.22049 0,0.11575 0.1157552,0.15985 0.1157552,0.0441 0.3031684,0.0441 v 0.10473 H 7.3953124 v -0.10473 q 0.2480469,0 0.4354601,-0.19293 0.060634,-0.0606 0.3638021,-0.43546 l 0.865408,-1.06384 -0.6008247,-0.88195 Q 8.1229166,183.7011 7.8693576,183.45857 7.7315537,183.32628 7.4614582,183.32628 v -0.10473 h 1.6646702 v 0.10473 q -0.2204861,0 -0.253559,0.006 -0.1653646,0.0276 -0.1653646,0.17087 0,0.0827 0.099219,0.25908 0.1047309,0.17638 0.3693143,0.55672 l 0.2315104,0.32522 0.6228725,-0.76068 q 0.06615,-0.0882 0.121268,-0.15985 0.09922,-0.1378 0.09922,-0.21497 0,-0.11576 -0.104731,-0.14883 -0.09922,-0.0331 -0.2811198,-0.0331 v -0.10473 z"
         style="stroke-width:0.26458332"
         id="path1631-3"
         inkscape:connector-curvature="0" />
    </g>
    <g
       aria-label="Y "
       inkscape:transform-center-x="-1.0690781"
       inkscape:transform-center-y="2.7338664e-06"
       style="font-style:normal;font-variant:normal;font-weight:500;font-stretch:normal;font-size:5.64444447px;line-height:1.25;font-family:aakar;-inkscape-font-specification:'aakar, Medium';font-variant-ligatures:normal;font-variant-caps:normal;font-variant-numeric:normal;font-feature-settings:normal;text-align:start;letter-spacing:0px;word-spacing:0px;writing-mode:lr-tb;text-anchor:start;fill:#b5bed5;fill-opacity:1;stroke:none;stroke-width:0.26458332"
       id="text4585-8-33"
       transform="translate(-0.98668927,19.293375)">
      <path
         d="m 10.261283,202.26662 v 0.10473 q -0.248047,0.0276 -0.4023867,0.17088 -0.148828,0.1378 -0.35829,0.4575 l -0.8157984,1.24575 v 1.06936 q 0,0.30868 0.09922,0.40239 0.09922,0.0937 0.4685327,0.0937 v 0.10473 H 7.5658407 v -0.10473 q 0.3803385,0 0.4795575,-0.12127 0.07717,-0.0937 0.07717,-0.43546 v -0.95911 L 7.400476,203.23676 Q 7.0587226,202.73515 6.8382365,202.50364 6.711457,202.37135 6.5075074,202.37135 v -0.10473 h 1.5434028 v 0.10473 q -0.165365,0 -0.2811198,0.0221 -0.1102431,0.0165 -0.1102431,0.14883 0,0.0441 0.027561,0.11575 0.033073,0.0717 0.066146,0.12127 l 0.8157986,1.2237 0.7882377,-1.24575 q 0.0441,-0.0717 0.06063,-0.10473 0.01654,-0.0386 0.01654,-0.0992 0,-0.11576 -0.104731,-0.14883 -0.104731,-0.0331 -0.275608,-0.0331 v -0.10473 z"
         style="stroke-width:0.26458332"
         id="path1634-8"
         inkscape:connector-curvature="0" />
    </g>
    <circle
       style="opacity:1;fill:#1a160e;fill-opacity:1;stroke:none;stroke-width:1.34206676;stroke-linejoin:round;stroke-miterlimit:4;stroke-dasharray:none;stroke-dashoffset:0;stroke-opacity:1;paint-order:fill markers stroke"
       id="path1054-6-3"
       cx="15.560881"
       cy="215.78778"
       r="5.25" />
    <circle
       style="opacity:1;fill:#1a160e;fill-opacity:1;stroke:none;stroke-width:1.34206676;stroke-linejoin:round;stroke-miterlimit:4;stroke-dasharray:none;stroke-dashoffset:0;stroke-opacity:1;paint-order:fill markers stroke"
       id="path1054-4-0-3"
       cx="15.560881"
       cy="224.23254"
       r="5.25" />
    <circle
       style="opacity:1;fill:#1a160e;fill-opacity:1;stroke:none;stroke-width:1.34206688;stroke-linejoin:round;stroke-miterlimit:4;stroke-dasharray:none;stroke-dashoffset:0;stroke-opacity:1;paint-order:fill markers stroke"
       id="path1054-3-4-8"
       cx="15.560881"
       cy="203.84241"
       r="5.25" />
    <rect
       style="opacity:1;fill:#1a160e;fill-opacity:1;stroke:none;stroke-width:0.7671234;stroke-linejoin:round;stroke-miterlimit:4;stroke-dasharray:none;stroke-dashoffset:0;stroke-opacity:1;paint-order:fill markers stroke"
       id="rect1113-8-6"
       width="10.5"
       height="8"
       x="10.310879"
       y="215.0593" />
    <rect
       style="opacity:1;fill:#1a160e;fill-opacity:1;stroke:none;stroke-width:0.88836384;stroke-linejoin:round;stroke-miterlimit:4;stroke-dasharray:none;stroke-dashoffset:0;stroke-opacity:1;paint-order:fill markers stroke"
       id="rect1130-8-0"
       width="1.6036172"
       height="5.0781207"
       x="14.610883"
       y="207.1629" />
    <rect
       style="opacity:1;fill:#1a160e;fill-opacity:1;stroke:none;stroke-width:1.55212998;stroke-linejoin:round;stroke-miterlimit:4;stroke-dasharray:none;stroke-dashoffset:0;stroke-opacity:1;paint-order:fill markers stroke"
       id="rect1130-8-0-8"
       width="1.6036172"
       height="15.501633"
       x="215.108"
       y="-35.867172"
       transform="rotate(90)" />
    <rect
       style="opacity:1;fill:#1a160e;fill-opacity:1;stroke:none;stroke-width:1.55212998;stroke-linejoin:round;stroke-miterlimit:4;stroke-dasharray:none;stroke-dashoffset:0;stroke-opacity:1;paint-order:fill markers stroke"
       id="rect1130-8-0-8-8"
       width="1.6036172"
       height="15.501633"
       x="222.60229"
       y="-35.573708"
       transform="rotate(90)" />
    <g
       aria-label="X"
       inkscape:transform-center-x="-1.0690781"
       inkscape:transform-center-y="2.7338664e-06"
       style="font-style:normal;font-variant:normal;font-weight:500;font-stretch:normal;font-size:5.64444447px;line-height:1.25;font-family:aakar;-inkscape-font-specification:'aakar, Medium';font-variant-ligatures:normal;font-variant-caps:normal;font-variant-numeric:normal;font-feature-settings:normal;text-align:start;letter-spacing:0px;word-spacing:0px;writing-mode:lr-tb;text-anchor:start;fill:#b5bed5;fill-opacity:1;stroke:none;stroke-width:0.26458332"
       id="text4585-4-9"
       transform="translate(-1.9224643,67.64005)">
      <path
         d="m 11.176649,183.22155 v 0.10473 q -0.242534,0 -0.374826,0.0772 -0.170877,0.0992 -0.446485,0.44097 l -0.8047738,1.00321 1.0583328,1.51033 q 0.165365,0.23702 0.275608,0.32522 0.115755,0.0827 0.336241,0.0827 v 0.10473 H 9.5836371 v -0.10473 q 0.1929253,0 0.253559,-0.011 0.1708769,-0.0276 0.1708769,-0.17639 0,-0.0661 -0.1047311,-0.24805 -0.071658,-0.12127 -0.1763889,-0.27561 l -0.5236545,-0.7717 -0.6559461,0.8158 q -0.1378039,0.17088 -0.1874132,0.24253 -0.099219,0.14332 -0.099219,0.22049 0,0.11575 0.1157552,0.15985 0.1157552,0.0441 0.3031684,0.0441 v 0.10473 H 7.3953124 v -0.10473 q 0.2480469,0 0.4354601,-0.19293 0.060634,-0.0606 0.3638021,-0.43546 l 0.865408,-1.06384 -0.6008247,-0.88195 Q 8.1229166,183.7011 7.8693576,183.45857 7.7315537,183.32628 7.4614582,183.32628 v -0.10473 h 1.6646702 v 0.10473 q -0.2204861,0 -0.253559,0.006 -0.1653646,0.0276 -0.1653646,0.17087 0,0.0827 0.099219,0.25908 0.1047309,0.17638 0.3693143,0.55672 l 0.2315104,0.32522 0.6228725,-0.76068 q 0.06615,-0.0882 0.121268,-0.15985 0.09922,-0.1378 0.09922,-0.21497 0,-0.11576 -0.104731,-0.14883 -0.09922,-0.0331 -0.2811198,-0.0331 v -0.10473 z"
         style="stroke-width:0.26458332"
         id="path1631-3-7"
         inkscape:connector-curvature="0" />
    </g>
    <g
       aria-label="Y "
       inkscape:transform-center-x="-1.0690781"
       inkscape:transform-center-y="2.7338664e-06"
       style="font-style:normal;font-variant:normal;font-weight:500;font-stretch:normal;font-size:5.64444447px;line-height:1.25;font-family:aakar;-inkscape-font-specification:'aakar, Medium';font-variant-ligatures:normal;font-variant-caps:normal;font-variant-numeric:normal;font-feature-settings:normal;text-align:start;letter-spacing:0px;word-spacing:0px;writing-mode:lr-tb;text-anchor:start;fill:#b5bed5;fill-opacity:1;stroke:none;stroke-width:0.26458332"
       id="text4585-8-33-7"
       transform="translate(-0.77506947,56.222406)">
      <path
         d="m 10.261283,202.26662 v 0.10473 q -0.248047,0.0276 -0.4023867,0.17088 -0.148828,0.1378 -0.35829,0.4575 l -0.8157984,1.24575 v 1.06936 q 0,0.30868 0.09922,0.40239 0.09922,0.0937 0.4685327,0.0937 v 0.10473 H 7.5658407 v -0.10473 q 0.3803385,0 0.4795575,-0.12127 0.07717,-0.0937 0.07717,-0.43546 v -0.95911 L 7.400476,203.23676 Q 7.0587226,202.73515 6.8382365,202.50364 6.711457,202.37135 6.5075074,202.37135 v -0.10473 h 1.5434028 v 0.10473 q -0.165365,0 -0.2811198,0.0221 -0.1102431,0.0165 -0.1102431,0.14883 0,0.0441 0.027561,0.11575 0.033073,0.0717 0.066146,0.12127 l 0.8157986,1.2237 0.7882377,-1.24575 q 0.0441,-0.0717 0.06063,-0.10473 0.01654,-0.0386 0.01654,-0.0992 0,-0.11576 -0.104731,-0.14883 -0.104731,-0.0331 -0.275608,-0.0331 v -0.10473 z"
         style="stroke-width:0.26458332"
         id="path1634-8-6"
         inkscape:connector-curvature="0" />
    </g>
    <circle
       style="opacity:1;fill:#1a160e;fill-opacity:1;stroke:none;stroke-width:1.34206676;stroke-linejoin:round;stroke-miterlimit:4;stroke-dasharray:none;stroke-dashoffset:0;stroke-opacity:1;paint-order:fill markers stroke"
       id="path1054-6-3-4"
       cx="15.772501"
       cy="252.71681"
       r="5.25" />
    <circle
       style="opacity:1;fill:#1a160e;fill-opacity:1;stroke:none;stroke-width:1.34206676;stroke-linejoin:round;stroke-miterlimit:4;stroke-dasharray:none;stroke-dashoffset:0;stroke-opacity:1;paint-order:fill markers stroke"
       id="path1054-4-0-3-3"
       cx="15.772501"
       cy="261.16159"
       r="5.25" />
    <circle
       style="opacity:1;fill:#1a160e;fill-opacity:1;stroke:none;stroke-width:1.34206688;stroke-linejoin:round;stroke-miterlimit:4;stroke-dasharray:none;stroke-dashoffset:0;stroke-opacity:1;paint-order:fill markers stroke"
       id="path1054-3-4-8-0"
       cx="15.772501"
       cy="240.77144"
       r="5.25" />
    <rect
       style="opacity:1;fill:#1a160e;fill-opacity:1;stroke:none;stroke-width:0.7671234;stroke-linejoin:round;stroke-miterlimit:4;stroke-dasharray:none;stroke-dashoffset:0;stroke-opacity:1;paint-order:fill markers stroke"
       id="rect1113-8-6-3"
       width="10.5"
       height="8"
       x="10.522499"
       y="251.98833" />
    <rect
       style="opacity:1;fill:#1a160e;fill-opacity:1;stroke:none;stroke-width:0.88836384;stroke-linejoin:round;stroke-miterlimit:4;stroke-dasharray:none;stroke-dashoffset:0;stroke-opacity:1;paint-order:fill markers stroke"
       id="rect1130-8-0-0"
       width="1.6036172"
       height="5.0781207"
       x="14.822503"
       y="244.09193" />
    <rect
       style="opacity:1;fill:#1a160e;fill-opacity:1;stroke:none;stroke-width:1.55212998;stroke-linejoin:round;stroke-miterlimit:4;stroke-dasharray:none;stroke-dashoffset:0;stroke-opacity:1;paint-order:fill markers stroke"
       id="rect1130-8-0-8-9"
       width="1.6036172"
       height="15.501633"
       x="252.03703"
       y="-36.078793"
       transform="rotate(90)" />
    <rect
       style="opacity:1;fill:#1a160e;fill-opacity:1;stroke:none;stroke-width:1.55212998;stroke-linejoin:round;stroke-miterlimit:4;stroke-dasharray:none;stroke-dashoffset:0;stroke-opacity:1;paint-order:fill markers stroke"
       id="rect1130-8-0-8-8-2"
       width="1.6036172"
       height="15.501633"
       x="259.53134"
       y="-35.785328"
       transform="rotate(90)" />
    <g
       aria-label="X"
       inkscape:transform-center-x="-1.0690781"
       inkscape:transform-center-y="2.7338664e-06"
       style="font-style:normal;font-variant:normal;font-weight:500;font-stretch:normal;font-size:5.64444447px;line-height:1.25;font-family:aakar;-inkscape-font-specification:'aakar, Medium';font-variant-ligatures:normal;font-variant-caps:normal;font-variant-numeric:normal;font-feature-settings:normal;text-align:start;letter-spacing:0px;word-spacing:0px;writing-mode:lr-tb;text-anchor:start;fill:#b5bed5;fill-opacity:1;stroke:none;stroke-width:0.26458332"
       id="text4585-4-4"
       transform="translate(38.174703,30.53123)">
      <path
         d="m 11.176649,183.22155 v 0.10473 q -0.242534,0 -0.374826,0.0772 -0.170877,0.0992 -0.446485,0.44097 l -0.8047738,1.00321 1.0583328,1.51033 q 0.165365,0.23702 0.275608,0.32522 0.115755,0.0827 0.336241,0.0827 v 0.10473 H 9.5836371 v -0.10473 q 0.1929253,0 0.253559,-0.011 0.1708769,-0.0276 0.1708769,-0.17639 0,-0.0661 -0.1047311,-0.24805 -0.071658,-0.12127 -0.1763889,-0.27561 l -0.5236545,-0.7717 -0.6559461,0.8158 q -0.1378039,0.17088 -0.1874132,0.24253 -0.099219,0.14332 -0.099219,0.22049 0,0.11575 0.1157552,0.15985 0.1157552,0.0441 0.3031684,0.0441 v 0.10473 H 7.3953124 v -0.10473 q 0.2480469,0 0.4354601,-0.19293 0.060634,-0.0606 0.3638021,-0.43546 l 0.865408,-1.06384 -0.6008247,-0.88195 Q 8.1229166,183.7011 7.8693576,183.45857 7.7315537,183.32628 7.4614582,183.32628 v -0.10473 h 1.6646702 v 0.10473 q -0.2204861,0 -0.253559,0.006 -0.1653646,0.0276 -0.1653646,0.17087 0,0.0827 0.099219,0.25908 0.1047309,0.17638 0.3693143,0.55672 l 0.2315104,0.32522 0.6228725,-0.76068 q 0.06615,-0.0882 0.121268,-0.15985 0.09922,-0.1378 0.09922,-0.21497 0,-0.11576 -0.104731,-0.14883 -0.09922,-0.0331 -0.2811198,-0.0331 v -0.10473 z"
         style="stroke-width:0.26458332"
         id="path1631-3-0"
         inkscape:connector-curvature="0" />
    </g>
    <g
       aria-label="Y "
       inkscape:transform-center-x="-1.0690781"
       inkscape:transform-center-y="2.7338664e-06"
       style="font-style:normal;font-variant:normal;font-weight:500;font-stretch:normal;font-size:5.64444447px;line-height:1.25;font-family:aakar;-inkscape-font-specification:'aakar, Medium';font-variant-ligatures:normal;font-variant-caps:normal;font-variant-numeric:normal;font-feature-settings:normal;text-align:start;letter-spacing:0px;word-spacing:0px;writing-mode:lr-tb;text-anchor:start;fill:#b5bed5;fill-opacity:1;stroke:none;stroke-width:0.26458332"
       id="text4585-8-33-5"
       transform="translate(39.322098,19.113586)">
      <path
         d="m 10.261283,202.26662 v 0.10473 q -0.248047,0.0276 -0.4023867,0.17088 -0.148828,0.1378 -0.35829,0.4575 l -0.8157984,1.24575 v 1.06936 q 0,0.30868 0.09922,0.40239 0.09922,0.0937 0.4685327,0.0937 v 0.10473 H 7.5658407 v -0.10473 q 0.3803385,0 0.4795575,-0.12127 0.07717,-0.0937 0.07717,-0.43546 v -0.95911 L 7.400476,203.23676 Q 7.0587226,202.73515 6.8382365,202.50364 6.711457,202.37135 6.5075074,202.37135 v -0.10473 h 1.5434028 v 0.10473 q -0.165365,0 -0.2811198,0.0221 -0.1102431,0.0165 -0.1102431,0.14883 0,0.0441 0.027561,0.11575 0.033073,0.0717 0.066146,0.12127 l 0.8157986,1.2237 0.7882377,-1.24575 q 0.0441,-0.0717 0.06063,-0.10473 0.01654,-0.0386 0.01654,-0.0992 0,-0.11576 -0.104731,-0.14883 -0.104731,-0.0331 -0.275608,-0.0331 v -0.10473 z"
         style="stroke-width:0.26458332"
         id="path1634-8-9"
         inkscape:connector-curvature="0" />
    </g>
    <circle
       style="opacity:1;fill:#1a160e;fill-opacity:1;stroke:none;stroke-width:1.34206676;stroke-linejoin:round;stroke-miterlimit:4;stroke-dasharray:none;stroke-dashoffset:0;stroke-opacity:1;paint-order:fill markers stroke"
       id="path1054-6-3-46"
       cx="55.869667"
       cy="215.60793"
       r="5.25" />
    <circle
       style="opacity:1;fill:#1a160e;fill-opacity:1;stroke:none;stroke-width:1.34206676;stroke-linejoin:round;stroke-miterlimit:4;stroke-dasharray:none;stroke-dashoffset:0;stroke-opacity:1;paint-order:fill markers stroke"
       id="path1054-4-0-3-9"
       cx="55.869667"
       cy="224.05269"
       r="5.25" />
    <circle
       style="opacity:1;fill:#1a160e;fill-opacity:1;stroke:none;stroke-width:1.34206688;stroke-linejoin:round;stroke-miterlimit:4;stroke-dasharray:none;stroke-dashoffset:0;stroke-opacity:1;paint-order:fill markers stroke"
       id="path1054-3-4-8-2"
       cx="55.869667"
       cy="203.66255"
       r="5.25" />
    <rect
       style="opacity:1;fill:#1a160e;fill-opacity:1;stroke:none;stroke-width:0.7671234;stroke-linejoin:round;stroke-miterlimit:4;stroke-dasharray:none;stroke-dashoffset:0;stroke-opacity:1;paint-order:fill markers stroke"
       id="rect1113-8-6-2"
       width="10.5"
       height="8"
       x="50.619667"
       y="214.87944" />
    <rect
       style="opacity:1;fill:#1a160e;fill-opacity:1;stroke:none;stroke-width:0.88836384;stroke-linejoin:round;stroke-miterlimit:4;stroke-dasharray:none;stroke-dashoffset:0;stroke-opacity:1;paint-order:fill markers stroke"
       id="rect1130-8-0-4"
       width="1.6036172"
       height="5.0781207"
       x="54.91967"
       y="206.98305" />
    <rect
       style="opacity:1;fill:#1a160e;fill-opacity:1;stroke:none;stroke-width:1.55212998;stroke-linejoin:round;stroke-miterlimit:4;stroke-dasharray:none;stroke-dashoffset:0;stroke-opacity:1;paint-order:fill markers stroke"
       id="rect1130-8-0-8-7"
       width="1.6036172"
       height="15.501633"
       x="214.92815"
       y="-76.175957"
       transform="rotate(90)" />
    <rect
       style="opacity:1;fill:#1a160e;fill-opacity:1;stroke:none;stroke-width:1.55212998;stroke-linejoin:round;stroke-miterlimit:4;stroke-dasharray:none;stroke-dashoffset:0;stroke-opacity:1;paint-order:fill markers stroke"
       id="rect1130-8-0-8-8-7"
       width="1.6036172"
       height="15.501633"
       x="222.42244"
       y="-75.882492"
       transform="rotate(90)" />
    <g
       aria-label="X"
       inkscape:transform-center-x="-1.0690781"
       inkscape:transform-center-y="2.7338664e-06"
       style="font-style:normal;font-variant:normal;font-weight:500;font-stretch:normal;font-size:5.64444447px;line-height:1.25;font-family:aakar;-inkscape-font-specification:'aakar, Medium';font-variant-ligatures:normal;font-variant-caps:normal;font-variant-numeric:normal;font-feature-settings:normal;text-align:start;letter-spacing:0px;word-spacing:0px;writing-mode:lr-tb;text-anchor:start;fill:#b5bed5;fill-opacity:1;stroke:none;stroke-width:0.26458332"
       id="text4585-5"
       transform="translate(13.654576,1.8252012)">
      <path
         d="m 11.176649,183.22155 v 0.10473 q -0.242534,0 -0.374826,0.0772 -0.170877,0.0992 -0.446485,0.44097 l -0.8047738,1.00321 1.0583328,1.51033 q 0.165365,0.23702 0.275608,0.32522 0.115755,0.0827 0.336241,0.0827 v 0.10473 H 9.5836371 v -0.10473 q 0.1929253,0 0.253559,-0.011 0.1708769,-0.0276 0.1708769,-0.17639 0,-0.0661 -0.1047311,-0.24805 -0.071658,-0.12127 -0.1763889,-0.27561 l -0.5236545,-0.7717 -0.6559461,0.8158 q -0.1378039,0.17088 -0.1874132,0.24253 -0.099219,0.14332 -0.099219,0.22049 0,0.11575 0.1157552,0.15985 0.1157552,0.0441 0.3031684,0.0441 v 0.10473 H 7.3953124 v -0.10473 q 0.2480469,0 0.4354601,-0.19293 0.060634,-0.0606 0.3638021,-0.43546 l 0.865408,-1.06384 -0.6008247,-0.88195 Q 8.1229166,183.7011 7.8693576,183.45857 7.7315537,183.32628 7.4614582,183.32628 v -0.10473 h 1.6646702 v 0.10473 q -0.2204861,0 -0.253559,0.006 -0.1653646,0.0276 -0.1653646,0.17087 0,0.0827 0.099219,0.25908 0.1047309,0.17638 0.3693143,0.55672 l 0.2315104,0.32522 0.6228725,-0.76068 q 0.06615,-0.0882 0.121268,-0.15985 0.09922,-0.1378 0.09922,-0.21497 0,-0.11576 -0.104731,-0.14883 -0.09922,-0.0331 -0.2811198,-0.0331 v -0.10473 z"
         style="stroke-width:0.26458332"
         id="path1631-4"
         inkscape:connector-curvature="0" />
    </g>
    <g
       aria-label="Y "
       inkscape:transform-center-x="-1.0690781"
       inkscape:transform-center-y="2.7338664e-06"
       style="font-style:normal;font-variant:normal;font-weight:500;font-stretch:normal;font-size:5.64444447px;line-height:1.25;font-family:aakar;-inkscape-font-specification:'aakar, Medium';font-variant-ligatures:normal;font-variant-caps:normal;font-variant-numeric:normal;font-feature-settings:normal;text-align:start;letter-spacing:0px;word-spacing:0px;writing-mode:lr-tb;text-anchor:start;fill:#b5bed5;fill-opacity:1;stroke:none;stroke-width:0.26458332"
       id="text4585-8-8"
       transform="translate(21.062912,-17.224806)">
      <path
         d="m 10.261283,202.26662 v 0.10473 q -0.248047,0.0276 -0.4023867,0.17088 -0.148828,0.1378 -0.35829,0.4575 l -0.8157984,1.24575 v 1.06936 q 0,0.30868 0.09922,0.40239 0.09922,0.0937 0.4685327,0.0937 v 0.10473 H 7.5658407 v -0.10473 q 0.3803385,0 0.4795575,-0.12127 0.07717,-0.0937 0.07717,-0.43546 v -0.95911 L 7.400476,203.23676 Q 7.0587226,202.73515 6.8382365,202.50364 6.711457,202.37135 6.5075074,202.37135 v -0.10473 h 1.5434028 v 0.10473 q -0.165365,0 -0.2811198,0.0221 -0.1102431,0.0165 -0.1102431,0.14883 0,0.0441 0.027561,0.11575 0.033073,0.0717 0.066146,0.12127 l 0.8157986,1.2237 0.7882377,-1.24575 q 0.0441,-0.0717 0.06063,-0.10473 0.01654,-0.0386 0.01654,-0.0992 0,-0.11576 -0.104731,-0.14883 -0.104731,-0.0331 -0.275608,-0.0331 v -0.10473 z"
         style="stroke-width:0.26458332"
         id="path1634-1"
         inkscape:connector-curvature="0" />
    </g>
    <circle
       style="opacity:1;fill:#1a160e;fill-opacity:1;stroke:none;stroke-width:1.34206688;stroke-linejoin:round;stroke-miterlimit:4;stroke-dasharray:none;stroke-dashoffset:0;stroke-opacity:1;paint-order:fill markers stroke"
       id="path1054-3-4-8-2-2"
       cx="63.599403"
       cy="241.37099"
       r="5.25" />
    <rect
       style="opacity:1;fill:#1a160e;fill-opacity:1;stroke:none;stroke-width:1.65571678;stroke-linejoin:round;stroke-miterlimit:4;stroke-dasharray:none;stroke-dashoffset:0;stroke-opacity:1;paint-order:fill markers stroke"
       id="rect1130-8-0-4-8"
       width="1.6036172"
       height="17.639788"
       x="62.649406"
       y="244.69148" />
    <g
       aria-label="IN"
       inkscape:transform-center-x="-1.0690781"
       inkscape:transform-center-y="2.7338664e-06"
       style="font-style:normal;font-variant:normal;font-weight:500;font-stretch:normal;font-size:5.64444447px;line-height:1.25;font-family:aakar;-inkscape-font-specification:'aakar, Medium';font-variant-ligatures:normal;font-variant-caps:normal;font-variant-numeric:normal;font-feature-settings:normal;text-align:start;letter-spacing:0px;word-spacing:0px;writing-mode:lr-tb;text-anchor:start;fill:#b5bed5;fill-opacity:1;stroke:none;stroke-width:0.26458332"
       id="text4585-8-3">
      <path
         d="m 39.248568,181.09673 v -0.10474 q 0.341753,0 0.43546,-0.0937 0.09922,-0.0992 0.09922,-0.40239 v -2.4474 q 0,-0.31419 -0.09922,-0.40238 -0.09371,-0.0937 -0.43546,-0.0937 v -0.10473 h 1.637109 v 0.10473 q -0.319705,0 -0.429948,0.0937 -0.110243,0.0882 -0.110243,0.40238 v 2.4474 q 0,0.30868 0.110243,0.40239 0.110243,0.0937 0.429948,0.0937 v 0.10474 z"
         style="stroke-width:0.26458332"
         id="path1046" />
      <path
         d="m 44.881988,177.44768 v 0.10473 q -0.30868,0.0331 -0.391363,0.12127 -0.132291,0.1378 -0.132291,0.58429 v 2.89939 h -0.09371 L 41.83928,178.1367 v 2.14974 q 0,0.42443 0.09922,0.56775 0.09922,0.1378 0.4079,0.1378 v 0.10474 h -1.295356 v -0.10474 q 0.325217,0 0.429948,-0.13229 0.104731,-0.13229 0.104731,-0.57326 v -2.43086 q -0.159853,-0.19293 -0.264584,-0.24805 -0.09922,-0.0551 -0.270095,-0.0551 v -0.10473 h 0.942578 l 2.122179,2.65135 v -1.84106 q 0,-0.452 -0.121268,-0.5898 -0.09922,-0.11576 -0.407899,-0.11576 v -0.10473 z"
         style="stroke-width:0.26458332"
         id="path1048" />
    </g>
    <g
       aria-label="OUT"
       inkscape:transform-center-x="22.71791"
       inkscape:transform-center-y="-28.865107"
       style="font-style:normal;font-variant:normal;font-weight:500;font-stretch:normal;font-size:5.64444447px;line-height:1.25;font-family:aakar;-inkscape-font-specification:'aakar, Medium';font-variant-ligatures:normal;font-variant-caps:normal;font-variant-numeric:normal;font-feature-settings:normal;text-align:start;letter-spacing:0px;word-spacing:0px;writing-mode:lr-tb;text-anchor:start;fill:#b5bed5;fill-opacity:1;stroke:none;stroke-width:0.26458332"
       id="text4585-8-3-1">
      <path
         d="m 43.975239,288.44787 q -0.76619,0 -1.273308,-0.50712 -0.529166,-0.52917 -0.529166,-1.38906 0,-0.89848 0.562239,-1.42765 0.507118,-0.47956 1.240235,-0.47956 0.738628,0 1.240234,0.47405 0.56224,0.52916 0.56224,1.43316 0,0.85989 -0.523655,1.38906 -0.501606,0.50712 -1.278819,0.50712 z m 0,-0.19844 q 0.501606,0 0.815798,-0.39688 0.35829,-0.45199 0.35829,-1.30638 0,-0.87092 -0.374826,-1.32291 -0.314193,-0.38034 -0.799262,-0.38034 -0.48507,0 -0.799262,0.38034 -0.374827,0.45199 -0.374827,1.32291 0,0.85439 0.35829,1.30638 0.314193,0.39688 0.815799,0.39688 z"
         style="stroke-width:0.26458332"
         id="path1125" />
      <path
         d="m 49.851194,284.72165 v 0.10473 q -0.33073,0 -0.424436,0.13781 -0.09371,0.1378 -0.09371,0.56775 v 1.43867 q 0,0.59531 -0.176389,0.90399 -0.325217,0.57327 -1.251258,0.57327 -0.876433,0 -1.196138,-0.57878 -0.170876,-0.30868 -0.170876,-0.82682 v -1.71979 q 0,-0.3142 -0.09371,-0.40239 -0.08819,-0.0937 -0.402387,-0.0937 v -0.10473 h 1.559939 v 0.10473 q -0.319705,0 -0.413411,0.0992 -0.08819,0.0937 -0.08819,0.39688 v 1.76389 q 0,0.46302 0.115755,0.68901 0.220487,0.42995 0.84336,0.42995 0.30868,0 0.545703,-0.11575 0.237023,-0.12127 0.35829,-0.31971 0.06063,-0.0992 0.09371,-0.27009 0.03307,-0.17088 0.03307,-0.47956 v -1.48828 q 0,-0.43546 -0.110243,-0.56775 -0.104731,-0.13781 -0.407899,-0.13781 v -0.10473 z"
         style="stroke-width:0.26458332"
         id="path1127" />
      <path
         d="m 52.436393,288.26597 v 0.10473 h -1.609549 v -0.10473 q 0.352778,0 0.446485,-0.12127 0.07166,-0.0937 0.07166,-0.43546 v -2.75608 h -0.297656 q -0.457509,0 -0.622874,0.13229 -0.165364,0.12678 -0.253559,0.57327 h -0.09922 v -0.93707 h 3.108854 v 0.93707 h -0.09922 q -0.08268,-0.44649 -0.248047,-0.57327 -0.165364,-0.13229 -0.628385,-0.13229 h -0.297657 v 2.81671 q 0,0.29215 0.09371,0.39688 0.09922,0.0992 0.43546,0.0992 z"
         style="stroke-width:0.26458332"
         id="path1129" />
    </g>
    <g
       aria-label="translate"
       inkscape:transform-center-x="22.71791"
       inkscape:transform-center-y="-28.865107"
       style="font-style:normal;font-variant:normal;font-weight:500;font-stretch:normal;font-size:5.64444447px;line-height:1.25;font-family:aakar;-inkscape-font-specification:'aakar, Medium';font-variant-ligatures:normal;font-variant-caps:normal;font-variant-numeric:normal;font-feature-settings:normal;text-align:start;letter-spacing:0px;word-spacing:0px;writing-mode:lr-tb;text-anchor:start;fill:#b5bed5;fill-opacity:1;stroke:none;stroke-width:0.26458332"
       id="text4585-8-3-1-1">
      <path
         d="m 23.944131,202.31776 v 0.17639 h -0.556727 v 1.57648 q 0,0.20946 0.03307,0.30868 0.06615,0.18741 0.248047,0.18741 0.121267,0 0.209461,-0.0661 0.04961,-0.0386 0.12678,-0.12678 l 0.07166,0.0606 q -0.09922,0.1819 -0.28112,0.30317 -0.176389,0.11575 -0.363802,0.11575 -0.23151,0 -0.35829,-0.14331 -0.148828,-0.17088 -0.148828,-0.55673 v -1.65916 h -0.292144 l -0.02205,-0.0386 q 0,-0.0331 0.110243,-0.11024 0.07166,-0.0496 0.132292,-0.11025 0.126779,-0.13229 0.248047,-0.28663 0.09371,-0.12127 0.248047,-0.34175 0.03859,0 0.03859,0.0717 v 0.63941 z"
         style="stroke-width:0.26458332"
         id="path1062" />
      <path
         d="m 24.489834,204.33521 v -1.37804 q 0,-0.21497 -0.06063,-0.28663 -0.03858,-0.0441 -0.132292,-0.0441 -0.05512,0 -0.08819,0.006 -0.03307,0 -0.09922,0.0165 v -0.0882 q 0.43546,-0.14332 0.815798,-0.29766 l 0.02756,0.011 v 0.49058 q 0.198438,-0.28663 0.347266,-0.39136 0.15434,-0.11025 0.319705,-0.11025 0.297656,0 0.297656,0.29766 0,0.10473 -0.06063,0.17639 -0.05512,0.0661 -0.148828,0.0661 -0.104731,0 -0.214974,-0.0937 -0.104731,-0.0992 -0.165364,-0.0992 -0.09922,0 -0.237023,0.15985 -0.137804,0.15985 -0.137804,0.29214 v 1.24024 q 0,0.25907 0.12678,0.34726 0.09922,0.0661 0.341753,0.0661 v 0.0827 h -1.322917 v -0.0827 q 0.248047,-0.0441 0.308681,-0.0937 0.08268,-0.0661 0.08268,-0.28663 z"
         style="stroke-width:0.26458332"
         id="path1064" />
      <path
         d="m 27.488445,204.12024 v -0.79926 q -0.545703,0.1819 -0.755165,0.41892 -0.137803,0.15434 -0.137803,0.35278 0,0.19843 0.10473,0.3197 0.104731,0.12127 0.259072,0.12127 0.08268,0 0.181901,-0.0331 0.09922,-0.0331 0.159852,-0.0662 0.121267,-0.0551 0.15434,-0.11575 0.03307,-0.0661 0.03307,-0.19844 z m 0.854384,0.31419 v 0.14332 q -0.148828,0.17639 -0.297656,0.23702 -0.09371,0.0386 -0.192926,0.0386 -0.137803,0 -0.214974,-0.0496 -0.143316,-0.0937 -0.143316,-0.35278 -0.203949,0.1819 -0.35829,0.27009 -0.23151,0.13229 -0.440972,0.13229 -0.237022,0 -0.413411,-0.15434 -0.170877,-0.15434 -0.170877,-0.41892 0,-0.37483 0.352778,-0.61736 0.242535,-0.16537 1.02526,-0.47405 v -0.33624 q 0,-0.25907 -0.148828,-0.37482 -0.110243,-0.0827 -0.275607,-0.0827 -0.148829,0 -0.270096,0.0772 -0.121267,0.0717 -0.121267,0.19293 0,0.0551 0.0055,0.11576 0.01102,0.0551 0.02205,0.0992 0,0.0937 -0.07166,0.16537 -0.07166,0.0717 -0.176388,0.0717 -0.115756,0 -0.176389,-0.0772 -0.06063,-0.0827 -0.06063,-0.16537 0,-0.20395 0.209462,-0.38585 0.259071,-0.226 0.689019,-0.226 0.534679,0 0.71658,0.3142 0.104731,0.1819 0.104731,0.56775 v 1.07487 q 0,0.17087 0.02205,0.24804 0.02756,0.0717 0.137804,0.0717 0.07717,0 0.132292,-0.0276 0.05512,-0.0276 0.115755,-0.0772 z"
         style="stroke-width:0.26458332"
         id="path1066" />
      <path
         d="m 28.794825,204.30214 v -1.36701 q 0,-0.23152 -0.06063,-0.30317 -0.03859,-0.0496 -0.132292,-0.0496 -0.115755,0 -0.159852,0.0221 v -0.0937 q 0.407899,-0.11576 0.760677,-0.24805 l 0.03858,0.011 v 0.43546 q 0.259071,-0.24254 0.380338,-0.31971 0.198438,-0.12678 0.424436,-0.12678 0.248047,0 0.413412,0.15434 0.23151,0.21498 0.23151,0.67249 v 1.26228 q 0,0.19844 0.07166,0.28112 0.07166,0.0827 0.264583,0.0827 v 0.0827 H 29.88072 v -0.0827 q 0.176388,0 0.248046,-0.0717 0.09922,-0.10473 0.09922,-0.39136 v -1.15204 q 0,-0.26458 -0.09371,-0.39688 -0.09371,-0.1378 -0.33073,-0.1378 -0.126779,0 -0.253559,0.0772 -0.126779,0.0772 -0.292144,0.23702 v 1.54892 q 0,0.14331 0.07717,0.21497 0.08268,0.0717 0.286632,0.0717 v 0.0827 h -1.168576 v -0.0827 q 0.192925,0 0.264583,-0.0827 0.07717,-0.0882 0.07717,-0.33073 z"
         style="stroke-width:0.26458332"
         id="path1068" />
      <path
         d="m 32.846258,203.06742 h -0.08268 q -0.08268,-0.39137 -0.259071,-0.55122 -0.137804,-0.12678 -0.352778,-0.12678 -0.20395,0 -0.314193,0.11576 -0.104731,0.11024 -0.104731,0.24253 0,0.13781 0.06063,0.23151 0.06615,0.0937 0.176389,0.15986 l 0.595312,0.35277 q 0.237023,0.14332 0.33073,0.25907 0.132291,0.15986 0.132291,0.39137 0,0.33624 -0.264583,0.53468 -0.231511,0.17638 -0.534679,0.17638 -0.132292,0 -0.352778,-0.0496 -0.220486,-0.0496 -0.286632,-0.0496 -0.07717,0 -0.121267,0.0661 h -0.07166 v -0.85989 h 0.08819 q 0.07717,0.34726 0.176389,0.49609 0.181901,0.27561 0.534679,0.27561 0.170877,0 0.292144,-0.0827 0.154341,-0.10473 0.154341,-0.3197 0,-0.24805 -0.286632,-0.4079 l -0.319705,-0.1819 q -0.402387,-0.226 -0.523655,-0.40239 -0.121267,-0.1819 -0.121267,-0.40238 0,-0.26459 0.181901,-0.452 0.214974,-0.22049 0.5898,-0.22049 0.121268,0 0.248047,0.0386 0.12678,0.0331 0.259071,0.0717 0.04961,0 0.09371,-0.0606 h 0.06063 z"
         style="stroke-width:0.26458332"
         id="path1070" />
      <path
         d="m 33.369912,204.79823 v -0.0827 q 0.242535,0 0.330729,-0.0827 0.09371,-0.0882 0.09371,-0.31419 v -2.6293 q 0,-0.19844 -0.0441,-0.26458 -0.0441,-0.0717 -0.20395,-0.0717 l -0.187413,0.011 v -0.0882 q 0.418924,-0.10473 0.545703,-0.13781 0.03307,-0.011 0.330729,-0.10473 l 0.02205,0.011 v 3.29075 q 0,0.23702 0.08268,0.30868 0.08268,0.0717 0.330729,0.0717 v 0.0827 z"
         style="stroke-width:0.26458332"
         id="path1072" />
      <path
         d="m 36.368523,204.12024 v -0.79926 q -0.545703,0.1819 -0.755165,0.41892 -0.137804,0.15434 -0.137804,0.35278 0,0.19843 0.104731,0.3197 0.104731,0.12127 0.259071,0.12127 0.08268,0 0.181901,-0.0331 0.09922,-0.0331 0.159853,-0.0662 0.121267,-0.0551 0.15434,-0.11575 0.03307,-0.0661 0.03307,-0.19844 z m 0.854384,0.31419 v 0.14332 q -0.148828,0.17639 -0.297656,0.23702 -0.09371,0.0386 -0.192926,0.0386 -0.137804,0 -0.214974,-0.0496 -0.143316,-0.0937 -0.143316,-0.35278 -0.203949,0.1819 -0.35829,0.27009 -0.23151,0.13229 -0.440972,0.13229 -0.237022,0 -0.413411,-0.15434 -0.170877,-0.15434 -0.170877,-0.41892 0,-0.37483 0.352778,-0.61736 0.242534,-0.16537 1.02526,-0.47405 v -0.33624 q 0,-0.25907 -0.148828,-0.37482 -0.110243,-0.0827 -0.275608,-0.0827 -0.148828,0 -0.270095,0.0772 -0.121267,0.0717 -0.121267,0.19293 0,0.0551 0.0055,0.11576 0.01102,0.0551 0.02205,0.0992 0,0.0937 -0.07166,0.16537 -0.07166,0.0717 -0.176389,0.0717 -0.115755,0 -0.176388,-0.0772 -0.06063,-0.0827 -0.06063,-0.16537 0,-0.20395 0.209462,-0.38585 0.259071,-0.226 0.689019,-0.226 0.534679,0 0.71658,0.3142 0.10473,0.1819 0.10473,0.56775 v 1.07487 q 0,0.17087 0.02205,0.24804 0.02756,0.0717 0.137804,0.0717 0.07717,0 0.132292,-0.0276 0.05512,-0.0276 0.115755,-0.0772 z"
         style="stroke-width:0.26458332"
         id="path1074" />
      <path
         d="m 38.639531,202.31776 v 0.17639 h -0.556728 v 1.57648 q 0,0.20946 0.03307,0.30868 0.06615,0.18741 0.248047,0.18741 0.121267,0 0.209462,-0.0661 0.04961,-0.0386 0.126779,-0.12678 l 0.07166,0.0606 q -0.09922,0.1819 -0.28112,0.30317 -0.176389,0.11575 -0.363802,0.11575 -0.23151,0 -0.35829,-0.14331 -0.148828,-0.17088 -0.148828,-0.55673 v -1.65916 h -0.292144 l -0.02205,-0.0386 q 0,-0.0331 0.110243,-0.11024 0.07166,-0.0496 0.132291,-0.11025 0.12678,-0.13229 0.248047,-0.28663 0.09371,-0.12127 0.248047,-0.34175 0.03858,0 0.03858,0.0717 v 0.63941 z"
         style="stroke-width:0.26458332"
         id="path1076" />
      <path
         d="m 41.015268,203.89424 0.08819,0.0386 q -0.09371,0.28663 -0.303169,0.52365 -0.352778,0.39687 -0.865408,0.39687 -0.468533,0 -0.749653,-0.32521 -0.281119,-0.32522 -0.281119,-0.90951 0,-0.68902 0.396875,-1.05833 0.319704,-0.29766 0.727604,-0.29766 0.413411,0 0.655946,0.23151 0.270095,0.25356 0.314193,0.77722 h -1.71428 q 0,0.66146 0.297656,0.96462 0.231511,0.23703 0.578776,0.23703 0.319705,0 0.56224,-0.20947 0.137804,-0.12126 0.292144,-0.36931 z m -1.714279,-0.79926 h 1.135503 q -0.0441,-0.28663 -0.115755,-0.41341 -0.12678,-0.22049 -0.413412,-0.22049 -0.248047,0 -0.396875,0.14332 -0.143316,0.1378 -0.209461,0.49058 z"
         style="stroke-width:0.26458332"
         id="path1078" />
    </g>
    <g
       aria-label="scale"
       inkscape:transform-center-x="22.71791"
       inkscape:transform-center-y="-28.865107"
       style="font-style:normal;font-variant:normal;font-weight:500;font-stretch:normal;font-size:5.64444447px;line-height:1.25;font-family:aakar;-inkscape-font-specification:'aakar, Medium';font-variant-ligatures:normal;font-variant-caps:normal;font-variant-numeric:normal;font-feature-settings:normal;text-align:start;letter-spacing:0px;word-spacing:0px;writing-mode:lr-tb;text-anchor:start;fill:#b5bed5;fill-opacity:1;stroke:none;stroke-width:0.26458332"
       id="text4585-8-3-1-1-0">
      <path
         d="m 64.732025,203.16753 h -0.08268 q -0.08268,-0.39136 -0.259071,-0.55122 -0.137804,-0.12677 -0.352778,-0.12677 -0.20395,0 -0.314193,0.11575 -0.104731,0.11024 -0.104731,0.24254 0,0.1378 0.06063,0.23151 0.06615,0.0937 0.176389,0.15985 l 0.595312,0.35278 q 0.237023,0.14331 0.33073,0.25907 0.132291,0.15985 0.132291,0.39136 0,0.33624 -0.264583,0.53468 -0.231511,0.17639 -0.534679,0.17639 -0.132292,0 -0.352778,-0.0496 -0.220486,-0.0496 -0.286632,-0.0496 -0.07717,0 -0.121267,0.0661 h -0.07166 v -0.85989 h 0.08819 q 0.07717,0.34726 0.176389,0.49609 0.181901,0.27561 0.534679,0.27561 0.170877,0 0.292144,-0.0827 0.15434,-0.10473 0.15434,-0.31971 0,-0.24804 -0.286631,-0.4079 l -0.319705,-0.1819 q -0.402387,-0.226 -0.523655,-0.40238 -0.121267,-0.18191 -0.121267,-0.40239 0,-0.26459 0.181901,-0.452 0.214974,-0.22048 0.5898,-0.22048 0.121268,0 0.248047,0.0386 0.12678,0.0331 0.259071,0.0717 0.04961,0 0.09371,-0.0606 h 0.06063 z"
         style="stroke-width:0.26458332"
         id="path1051" />
      <path
         d="m 67.333761,204.03845 0.07717,0.0496 q -0.220486,0.46302 -0.490581,0.66697 -0.264583,0.19844 -0.611849,0.19844 -0.385851,0 -0.677995,-0.28663 -0.352778,-0.34727 -0.352778,-0.94258 0,-0.63941 0.391363,-1.01975 0.352778,-0.34175 0.84336,-0.34175 0.148828,0 0.30868,0.0496 0.159853,0.0441 0.275608,0.12677 0.115755,0.0772 0.176389,0.18742 0.06063,0.10473 0.06063,0.19292 0,0.10473 -0.06614,0.17639 -0.06063,0.0662 -0.187414,0.0662 -0.104731,0 -0.176389,-0.0717 -0.06615,-0.0717 -0.09371,-0.1819 l -0.03307,-0.12127 q -0.03858,-0.14883 -0.08819,-0.19292 -0.07717,-0.0717 -0.275607,-0.0717 -0.237023,0 -0.429948,0.1819 -0.28112,0.26458 -0.28112,0.79926 0,0.46853 0.242535,0.76068 0.242535,0.29214 0.600824,0.29214 0.270096,0 0.474046,-0.15434 0.143316,-0.11024 0.314192,-0.3638 z"
         style="stroke-width:0.26458332"
         id="path1053" />
      <path
         d="m 69.169308,204.22035 v -0.79926 q -0.545703,0.1819 -0.755165,0.41892 -0.137804,0.15434 -0.137804,0.35278 0,0.19844 0.104731,0.31971 0.104731,0.12126 0.259072,0.12126 0.08268,0 0.181901,-0.0331 0.09922,-0.0331 0.159852,-0.0661 0.121267,-0.0551 0.15434,-0.11575 0.03307,-0.0661 0.03307,-0.19844 z m 0.854384,0.31419 v 0.14332 q -0.148828,0.17639 -0.297656,0.23702 -0.09371,0.0386 -0.192926,0.0386 -0.137804,0 -0.214974,-0.0496 -0.143316,-0.0937 -0.143316,-0.35278 -0.203949,0.1819 -0.35829,0.2701 -0.23151,0.13229 -0.440972,0.13229 -0.237022,0 -0.413411,-0.15434 -0.170877,-0.15434 -0.170877,-0.41893 0,-0.37482 0.352778,-0.61736 0.242534,-0.16536 1.02526,-0.47404 v -0.33624 q 0,-0.25908 -0.148828,-0.37483 -0.110243,-0.0827 -0.275608,-0.0827 -0.148828,0 -0.270095,0.0772 -0.121267,0.0717 -0.121267,0.19292 0,0.0551 0.0055,0.11576 0.01102,0.0551 0.02205,0.0992 0,0.0937 -0.07166,0.16536 -0.07166,0.0717 -0.176389,0.0717 -0.115755,0 -0.176388,-0.0772 -0.06063,-0.0827 -0.06063,-0.16537 0,-0.20395 0.209462,-0.38585 0.259071,-0.22599 0.689019,-0.22599 0.534679,0 0.71658,0.31419 0.104731,0.1819 0.104731,0.56775 v 1.07487 q 0,0.17088 0.02205,0.24805 0.02756,0.0717 0.137804,0.0717 0.07717,0 0.132292,-0.0276 0.05512,-0.0276 0.115755,-0.0772 z"
         style="stroke-width:0.26458332"
         id="path1055" />
      <path
         d="m 70.150471,204.89835 v -0.0827 q 0.242535,0 0.33073,-0.0827 0.09371,-0.0882 0.09371,-0.31419 v -2.6293 q 0,-0.19844 -0.0441,-0.26458 -0.0441,-0.0717 -0.20395,-0.0717 l -0.187413,0.011 v -0.0882 q 0.418924,-0.10473 0.545703,-0.1378 0.03307,-0.011 0.330729,-0.10473 l 0.02205,0.011 v 3.29076 q 0,0.23702 0.08268,0.30868 0.08268,0.0717 0.330729,0.0717 v 0.0827 z"
         style="stroke-width:0.26458332"
         id="path1057" />
      <path
         d="m 73.816053,203.99435 0.08819,0.0386 q -0.09371,0.28663 -0.303169,0.52365 -0.352778,0.39688 -0.865408,0.39688 -0.468533,0 -0.749653,-0.32522 -0.281119,-0.32522 -0.281119,-0.9095 0,-0.68902 0.396875,-1.05834 0.319704,-0.29765 0.727604,-0.29765 0.413411,0 0.655946,0.23151 0.270095,0.25356 0.314193,0.77721 h -1.71428 q 0,0.66146 0.297656,0.96463 0.231511,0.23702 0.578776,0.23702 0.319705,0 0.56224,-0.20946 0.137804,-0.12127 0.292144,-0.36932 z m -1.714279,-0.79926 h 1.135503 q -0.0441,-0.28663 -0.115755,-0.41341 -0.12678,-0.22049 -0.413412,-0.22049 -0.248046,0 -0.396875,0.14332 -0.143316,0.1378 -0.209461,0.49058 z"
         style="stroke-width:0.26458332"
         id="path1059" />
    </g>
    <g
       aria-label="skew"
       inkscape:transform-center-x="22.71791"
       inkscape:transform-center-y="-28.865107"
       style="font-style:normal;font-variant:normal;font-weight:500;font-stretch:normal;font-size:5.64444447px;line-height:1.25;font-family:aakar;-inkscape-font-specification:'aakar, Medium';font-variant-ligatures:normal;font-variant-caps:normal;font-variant-numeric:normal;font-feature-settings:normal;text-align:start;letter-spacing:0px;word-spacing:0px;writing-mode:lr-tb;text-anchor:start;fill:#b5bed5;fill-opacity:1;stroke:none;stroke-width:0.26458332"
       id="text4585-8-3-1-1-5">
      <path
         d="m 24.937027,240.31629 h -0.08268 q -0.08268,-0.39136 -0.259071,-0.55122 -0.137804,-0.12678 -0.352778,-0.12678 -0.20395,0 -0.314193,0.11576 -0.104731,0.11024 -0.104731,0.24253 0,0.13781 0.06063,0.23151 0.06615,0.0937 0.176389,0.15986 l 0.595312,0.35277 q 0.237023,0.14332 0.330729,0.25907 0.132292,0.15986 0.132292,0.39137 0,0.33624 -0.264583,0.53468 -0.231511,0.17639 -0.534679,0.17639 -0.132292,0 -0.352778,-0.0496 -0.220486,-0.0496 -0.286632,-0.0496 -0.07717,0 -0.121267,0.0661 h -0.07166 v -0.85989 h 0.08819 q 0.07717,0.34726 0.176389,0.49609 0.181901,0.27561 0.534679,0.27561 0.170877,0 0.292144,-0.0827 0.15434,-0.10474 0.15434,-0.31971 0,-0.24805 -0.286632,-0.4079 l -0.319704,-0.1819 q -0.402388,-0.226 -0.523655,-0.40239 -0.121267,-0.1819 -0.121267,-0.40238 0,-0.26459 0.181901,-0.452 0.214974,-0.22049 0.5898,-0.22049 0.121267,0 0.248047,0.0386 0.126779,0.0331 0.259071,0.0717 0.04961,0 0.09371,-0.0606 h 0.06063 z"
         style="stroke-width:0.26458332"
         id="path1092" />
      <path
         d="m 25.383511,242.0471 v -0.0827 q 0.286632,-0.0441 0.347266,-0.0992 0.06615,-0.0551 0.06615,-0.27009 v -2.65686 q 0,-0.19844 -0.0441,-0.26458 -0.0441,-0.0717 -0.20395,-0.0717 l -0.165365,0.011 v -0.0882 q 0.209462,-0.0551 0.396875,-0.10473 0.187414,-0.0496 0.457509,-0.13781 l 0.02205,0.011 v 2.29305 l 0.01102,0.011 0.744141,-0.66146 q 0.126779,-0.11576 0.126779,-0.18741 0,-0.0551 -0.05512,-0.0772 -0.04961,-0.0276 -0.220486,-0.0276 v -0.0772 h 1.124479 v 0.0827 q -0.264584,0 -0.424436,0.0827 -0.248047,0.12678 -0.766189,0.61185 l -0.159853,0.14883 0.84336,1.06935 q 0.187413,0.23151 0.369314,0.33073 0.137804,0.0717 0.275608,0.0717 v 0.0827 h -1.20165 v -0.0827 h 0.104731 q 0.115755,0 0.115755,-0.0882 0,-0.022 -0.04961,-0.0827 -0.0441,-0.0661 -0.06615,-0.0992 l -0.760677,-1.01424 -0.01102,0.9977 q 0,0.15985 0.07717,0.22049 0.07717,0.0606 0.225998,0.0606 l 0.110243,0.006 v 0.0827 z"
         style="stroke-width:0.26458332"
         id="path1094" />
      <path
         d="m 30.349961,241.14311 0.08819,0.0386 q -0.09371,0.28663 -0.303168,0.52365 -0.352778,0.39688 -0.865408,0.39688 -0.468533,0 -0.749653,-0.32522 -0.281119,-0.32522 -0.281119,-0.90951 0,-0.68902 0.396875,-1.05833 0.319704,-0.29766 0.727604,-0.29766 0.413411,0 0.655946,0.23151 0.270095,0.25356 0.314193,0.77722 h -1.71428 q 0,0.66146 0.297656,0.96462 0.231511,0.23703 0.578776,0.23703 0.319705,0 0.56224,-0.20946 0.137804,-0.12127 0.292144,-0.36932 z m -1.714279,-0.79926 h 1.135503 q -0.0441,-0.28663 -0.115755,-0.41341 -0.12678,-0.22049 -0.413412,-0.22049 -0.248047,0 -0.396875,0.14332 -0.143316,0.1378 -0.209461,0.49058 z"
         style="stroke-width:0.26458332"
         id="path1096" />
      <path
         d="m 33.695838,239.56664 h 0.677995 v 0.0827 q -0.08819,0.0276 -0.121268,0.0772 -0.03307,0.0441 -0.104731,0.22048 l -0.760677,1.90721 q -0.03859,0.0882 -0.07166,0.17639 -0.0441,0.0937 -0.08268,0.0937 -0.03307,0 -0.06615,-0.0717 -0.01102,-0.0276 -0.06615,-0.16537 l -0.501606,-1.30087 -0.617361,1.32292 q -0.110243,0.21497 -0.137804,0.21497 -0.02756,0 -0.06063,-0.0551 -0.02756,-0.0496 -0.08268,-0.18741 l -0.74414,-1.88516 q -0.08819,-0.21497 -0.132292,-0.27009 -0.06063,-0.0772 -0.159852,-0.0772 v -0.0827 h 0.992187 v 0.0827 q -0.165364,0.0165 -0.209462,0.0551 -0.0441,0.0386 -0.0441,0.13229 0,0.12127 0.28112,0.83234 0.237023,0.60082 0.297656,0.76618 l 0.501606,-1.09691 q -0.148828,-0.44649 -0.23151,-0.55673 -0.08268,-0.11024 -0.259071,-0.13229 v -0.0827 h 1.118967 v 0.0827 q -0.176389,0.0276 -0.225999,0.0496 -0.09371,0.0441 -0.09371,0.15434 0,0.0772 0.02205,0.14331 0.05512,0.12678 0.09371,0.23151 l 0.440972,1.1796 0.496094,-1.22369 q 0.09371,-0.21498 0.09371,-0.35278 0,-0.0827 -0.06063,-0.12127 -0.06063,-0.0386 -0.181901,-0.0606 z"
         style="stroke-width:0.26458332"
         id="path1098" />
    </g>
    <g
       aria-label="rotate"
       inkscape:transform-center-x="22.71791"
       inkscape:transform-center-y="-28.865107"
       style="font-style:normal;font-variant:normal;font-weight:500;font-stretch:normal;font-size:5.64444447px;line-height:1.25;font-family:aakar;-inkscape-font-specification:'aakar, Medium';font-variant-ligatures:normal;font-variant-caps:normal;font-variant-numeric:normal;font-feature-settings:normal;text-align:start;letter-spacing:0px;word-spacing:0px;writing-mode:lr-tb;text-anchor:start;fill:#b5bed5;fill-opacity:1;stroke:none;stroke-width:0.26458332"
       id="text4585-8-3-1-1-6">
      <path
         d="m 71.153314,242.26925 v -1.37804 q 0,-0.21497 -0.06063,-0.28663 -0.03858,-0.0441 -0.132291,-0.0441 -0.05512,0 -0.0882,0.006 -0.03307,0 -0.09922,0.0165 v -0.0882 q 0.43546,-0.14332 0.815799,-0.29766 l 0.02756,0.011 v 0.49058 q 0.198437,-0.28663 0.347265,-0.39136 0.154341,-0.11024 0.319705,-0.11024 0.297656,0 0.297656,0.29766 0,0.10473 -0.06063,0.17638 -0.05512,0.0662 -0.148828,0.0662 -0.104731,0 -0.214974,-0.0937 -0.104731,-0.0992 -0.165365,-0.0992 -0.09922,0 -0.237022,0.15986 -0.137804,0.15985 -0.137804,0.29214 v 1.24024 q 0,0.25907 0.126779,0.34726 0.09922,0.0661 0.341754,0.0661 v 0.0827 h -1.322917 v -0.0827 q 0.248047,-0.0441 0.308681,-0.0937 0.08268,-0.0661 0.08268,-0.28663 z"
         style="stroke-width:0.26458332"
         id="path1101" />
      <path
         d="m 73.920415,240.19668 q 0.556727,0 0.89848,0.34175 0.341754,0.34176 0.341754,0.93707 0,0.47404 -0.297656,0.85989 -0.347266,0.452 -0.926042,0.452 -0.529167,0 -0.87092,-0.36931 -0.336241,-0.37483 -0.336241,-0.94258 0,-0.53468 0.314192,-0.89297 0.336242,-0.38585 0.876433,-0.38585 z m 0.09371,2.43637 q 0.259071,0 0.429948,-0.19844 0.220486,-0.25907 0.220486,-0.79926 0,-0.53468 -0.209462,-0.9095 -0.209461,-0.37483 -0.578776,-0.37483 -0.275607,0 -0.463021,0.226 -0.187413,0.22048 -0.187413,0.6339 0,0.47955 0.143316,0.85989 0.209462,0.56224 0.644922,0.56224 z"
         style="stroke-width:0.26458332"
         id="path1103" />
      <path
         d="m 76.731613,240.2518 v 0.17639 h -0.556728 v 1.57648 q 0,0.20946 0.03307,0.30868 0.06615,0.18741 0.248047,0.18741 0.121267,0 0.209462,-0.0662 0.04961,-0.0386 0.126779,-0.12678 l 0.07166,0.0606 q -0.09922,0.1819 -0.28112,0.30317 -0.176388,0.11575 -0.363802,0.11575 -0.23151,0 -0.35829,-0.14332 -0.148828,-0.17087 -0.148828,-0.55672 v -1.65916 H 75.41972 l -0.02205,-0.0386 q 0,-0.0331 0.110243,-0.11024 0.07166,-0.0496 0.132291,-0.11024 0.12678,-0.13229 0.248047,-0.28663 0.09371,-0.12127 0.248047,-0.34176 0.03858,0 0.03858,0.0717 v 0.63941 z"
         style="stroke-width:0.26458332"
         id="path1105" />
      <path
         d="m 78.44038,242.05427 v -0.79926 q -0.545704,0.1819 -0.755165,0.41893 -0.137804,0.15434 -0.137804,0.35277 0,0.19844 0.104731,0.31971 0.104731,0.12127 0.259071,0.12127 0.08268,0 0.181901,-0.0331 0.09922,-0.0331 0.159852,-0.0661 0.121268,-0.0551 0.154341,-0.11576 0.03307,-0.0661 0.03307,-0.19844 z m 0.854383,0.3142 v 0.14331 q -0.148828,0.17639 -0.297656,0.23703 -0.09371,0.0386 -0.192925,0.0386 -0.137804,0 -0.214974,-0.0496 -0.143316,-0.0937 -0.143316,-0.35278 -0.20395,0.1819 -0.35829,0.2701 -0.231511,0.13229 -0.440972,0.13229 -0.237023,0 -0.413412,-0.15434 -0.170877,-0.15434 -0.170877,-0.41892 0,-0.37483 0.352778,-0.61736 0.242535,-0.16537 1.025261,-0.47405 v -0.33624 q 0,-0.25907 -0.148829,-0.37483 -0.110243,-0.0827 -0.275607,-0.0827 -0.148828,0 -0.270096,0.0772 -0.121267,0.0717 -0.121267,0.19293 0,0.0551 0.0055,0.11575 0.01102,0.0551 0.02205,0.0992 0,0.0937 -0.07166,0.16536 -0.07166,0.0717 -0.176389,0.0717 -0.115755,0 -0.176389,-0.0772 -0.06063,-0.0827 -0.06063,-0.16536 0,-0.20395 0.209462,-0.38585 0.259071,-0.226 0.689019,-0.226 0.534679,0 0.71658,0.31419 0.104731,0.1819 0.104731,0.56775 v 1.07487 q 0,0.17088 0.02205,0.24805 0.02756,0.0717 0.137803,0.0717 0.07717,0 0.132292,-0.0276 0.05512,-0.0276 0.115755,-0.0772 z"
         style="stroke-width:0.26458332"
         id="path1107" />
      <path
         d="m 80.711387,240.2518 v 0.17639 H 80.15466 v 1.57648 q 0,0.20946 0.03307,0.30868 0.06615,0.18741 0.248047,0.18741 0.121268,0 0.209462,-0.0662 0.04961,-0.0386 0.12678,-0.12678 l 0.07166,0.0606 q -0.09922,0.1819 -0.28112,0.30317 -0.176389,0.11575 -0.363802,0.11575 -0.231511,0 -0.35829,-0.14332 -0.148828,-0.17087 -0.148828,-0.55672 v -1.65916 h -0.292144 l -0.02205,-0.0386 q 0,-0.0331 0.110243,-0.11024 0.07166,-0.0496 0.132292,-0.11024 0.126779,-0.13229 0.248047,-0.28663 0.09371,-0.12127 0.248047,-0.34176 0.03859,0 0.03859,0.0717 v 0.63941 z"
         style="stroke-width:0.26458332"
         id="path1109" />
      <path
         d="m 83.087125,241.82828 0.08819,0.0386 q -0.09371,0.28663 -0.303168,0.52366 -0.352778,0.39687 -0.865408,0.39687 -0.468533,0 -0.749653,-0.32522 -0.28112,-0.32521 -0.28112,-0.9095 0,-0.68902 0.396875,-1.05833 0.319705,-0.29766 0.727604,-0.29766 0.413412,0 0.655946,0.23151 0.270096,0.25356 0.314193,0.77721 h -1.714279 q 0,0.66146 0.297656,0.96463 0.23151,0.23702 0.578776,0.23702 0.319705,0 0.562239,-0.20946 0.137804,-0.12127 0.292145,-0.36931 z m -1.71428,-0.79927 h 1.135504 q -0.0441,-0.28663 -0.115756,-0.41341 -0.126779,-0.22048 -0.413411,-0.22048 -0.248047,0 -0.396875,0.14331 -0.143316,0.13781 -0.209462,0.49058 z"
         style="stroke-width:0.26458332"
         id="path1111" />
    </g>
  </g>
  <g
     inkscape:groupmode="layer"
     id="layer2"
     inkscape:label="components"
     style="display:none">
    <circle
       transform="translate(0,-168.5)"
       style="opacity:1;fill:#00ff00;fill-opacity:1;stroke:none;stroke-width:1.05900002;stroke-linejoin:round;stroke-miterlimit:4;stroke-dasharray:none;stroke-dashoffset:0;stroke-opacity:1;paint-order:fill markers stroke"
       id="path1905"
       cx="10.418139"
       cy="178.86148"
       r="2.6726952"
       inkscape:label="IN_POSITION" />
    <circle
       transform="translate(0,-168.5)"
       style="opacity:1;fill:#00ff00;fill-opacity:1;stroke:none;stroke-width:1.05900002;stroke-linejoin:round;stroke-miterlimit:4;stroke-dasharray:none;stroke-dashoffset:0;stroke-opacity:1;paint-order:fill markers stroke"
       id="path1905-6"
       cx="21.53064"
       cy="178.85072"
       r="2.6726952"
       inkscape:label="IN_X" />
    <circle
       transform="translate(0,-168.5)"
       style="opacity:1;fill:#00ff00;fill-opacity:1;stroke:none;stroke-width:1.05900002;stroke-linejoin:round;stroke-miterlimit:4;stroke-dasharray:none;stroke-dashoffset:0;stroke-opacity:1;paint-order:fill markers stroke"
       id="path1905-6-2"
       cx="31.379295"
       cy="178.92604"
       r="2.6726952"
       inkscape:label="IN_Y" />
    <circle
       style="opacity:1;fill:#00ff00;fill-opacity:1;stroke:none;stroke-width:1.05900002;stroke-linejoin:round;stroke-miterlimit:4;stroke-dasharray:none;stroke-dashoffset:0;stroke-opacity:1;paint-order:fill markers stroke"
       id="path1905-5"
       cx="203.99622"
       cy="-15.43856"
       r="2.6726952"
       transform="rotate(90,84.25,-84.249999)"
       inkscape:label="TRANSLATE_VECTOR" />
    <circle
       style="opacity:1;fill:#00ff00;fill-opacity:1;stroke:none;stroke-width:1.05900002;stroke-linejoin:round;stroke-miterlimit:4;stroke-dasharray:none;stroke-dashoffset:0;stroke-opacity:1;paint-order:fill markers stroke"
       id="path1905-6-8"
       cx="215.10872"
       cy="-15.449318"
       r="2.6726952"
       transform="rotate(90,84.25,-84.249999)"
       inkscape:label="TRANSLATE_X" />
    <circle
       style="opacity:1;fill:#00ff00;fill-opacity:1;stroke:none;stroke-width:1.05900002;stroke-linejoin:round;stroke-miterlimit:4;stroke-dasharray:none;stroke-dashoffset:0;stroke-opacity:1;paint-order:fill markers stroke"
       id="path1905-6-2-6"
       cx="224.95737"
       cy="-15.374001"
       r="2.6726952"
       transform="rotate(90,84.25,-84.249999)"
       inkscape:label="TRANSLATE_Y" />
    <circle
       style="opacity:1;fill:#00ff00;fill-opacity:1;stroke:none;stroke-width:1.05900002;stroke-linejoin:round;stroke-miterlimit:4;stroke-dasharray:none;stroke-dashoffset:0;stroke-opacity:1;paint-order:fill markers stroke"
       id="path1905-5-8"
       cx="203.75951"
       cy="-55.725025"
       r="2.6726952"
       transform="rotate(90,84.25,-84.249999)"
       inkscape:label="SCALE_VECTOR" />
    <circle
       style="opacity:1;fill:#00ff00;fill-opacity:1;stroke:none;stroke-width:1.05900002;stroke-linejoin:round;stroke-miterlimit:4;stroke-dasharray:none;stroke-dashoffset:0;stroke-opacity:1;paint-order:fill markers stroke"
       id="path1905-6-8-4"
       cx="214.87201"
       cy="-55.735783"
       r="2.6726952"
       transform="rotate(90,84.25,-84.249999)"
       inkscape:label="SCALE_X" />
    <circle
       style="opacity:1;fill:#00ff00;fill-opacity:1;stroke:none;stroke-width:1.05900002;stroke-linejoin:round;stroke-miterlimit:4;stroke-dasharray:none;stroke-dashoffset:0;stroke-opacity:1;paint-order:fill markers stroke"
       id="path1905-6-2-6-7"
       cx="224.72067"
       cy="-55.660465"
       r="2.6726952"
       transform="rotate(90,84.25,-84.249999)"
       inkscape:label="SCALE_Y" />
    <circle
       style="opacity:1;fill:#00ff00;fill-opacity:1;stroke:none;stroke-width:1.05900002;stroke-linejoin:round;stroke-miterlimit:4;stroke-dasharray:none;stroke-dashoffset:0;stroke-opacity:1;paint-order:fill markers stroke"
       id="path1905-5-8-4"
       cx="240.80116"
       cy="-15.50841"
       r="2.6726952"
       transform="rotate(90,84.25,-84.249999)"
       inkscape:label="SKEW_VECTOR" />
    <circle
       style="opacity:1;fill:#00ff00;fill-opacity:1;stroke:none;stroke-width:1.05900002;stroke-linejoin:round;stroke-miterlimit:4;stroke-dasharray:none;stroke-dashoffset:0;stroke-opacity:1;paint-order:fill markers stroke"
       id="path1905-6-8-4-0"
       cx="251.91367"
       cy="-15.519167"
       r="2.6726952"
       transform="rotate(90,84.25,-84.249999)"
       inkscape:label="SKEW_X" />
    <circle
       style="opacity:1;fill:#00ff00;fill-opacity:1;stroke:none;stroke-width:1.05900002;stroke-linejoin:round;stroke-miterlimit:4;stroke-dasharray:none;stroke-dashoffset:0;stroke-opacity:1;paint-order:fill markers stroke"
       id="path1905-6-2-6-7-6"
       cx="261.76233"
       cy="-15.44385"
       r="2.6726952"
       transform="rotate(90,84.25,-84.249999)"
       inkscape:label="SKEW_Y" />
    <circle
       style="opacity:1;fill:#0000ff;fill-opacity:1;stroke:none;stroke-width:1.05900002;stroke-linejoin:round;stroke-miterlimit:4;stroke-dasharray:none;stroke-dashoffset:0;stroke-opacity:1;paint-order:fill markers stroke"
       id="path1905-5-8-9"
       cx="-80.869179"
       cy="-286.91739"
       r="2.6726952"
       transform="rotate(180,0,-84.249999)"
       inkscape:label="OUT_POSITION" />
    <circle
       style="opacity:1;fill:#0000ff;fill-opacity:1;stroke:none;stroke-width:1.05900002;stroke-linejoin:round;stroke-miterlimit:4;stroke-dasharray:none;stroke-dashoffset:0;stroke-opacity:1;paint-order:fill markers stroke"
       id="path1905-6-8-4-08"
       cx="-69.756676"
       cy="-286.92813"
       r="2.6726952"
       transform="rotate(180,0,-84.249999)"
       inkscape:label="OUT_Y" />
    <circle
       style="opacity:1;fill:#0000ff;fill-opacity:1;stroke:none;stroke-width:1.05900002;stroke-linejoin:round;stroke-miterlimit:4;stroke-dasharray:none;stroke-dashoffset:0;stroke-opacity:1;paint-order:fill markers stroke"
       id="path1905-6-2-6-7-1"
       cx="-59.908024"
       cy="-286.85281"
       r="2.6726952"
       transform="rotate(180,0,-84.249999)"
       inkscape:label="OUT_X" />
    <circle
       transform="translate(0,-168.5)"
       style="opacity:1;fill:#00ff00;fill-opacity:1;stroke:none;stroke-width:1.05900002;stroke-linejoin:round;stroke-miterlimit:4;stroke-dasharray:none;stroke-dashoffset:0;stroke-opacity:1;paint-order:fill markers stroke"
       id="path1905-3"
       cx="63.615517"
       cy="241.40794"
       r="2.6726952"
       inkscape:label="ROTATE" />
    <circle
       transform="translate(0,-168.5)"
       style="opacity:1;fill:#ff0000;fill-opacity:1;stroke:none;stroke-width:1.05900002;stroke-linejoin:round;stroke-miterlimit:4;stroke-dasharray:none;stroke-dashoffset:0;stroke-opacity:1;paint-order:fill markers stroke"
       id="path1905-1"
       cx="27.790659"
       cy="215.48279"
       r="2.6726952"
       inkscape:label="TRANSLATE_X_MOD" />
    <circle
       transform="translate(0,-168.5)"
       style="opacity:1;fill:#ff0000;fill-opacity:1;stroke:none;stroke-width:1.05900002;stroke-linejoin:round;stroke-miterlimit:4;stroke-dasharray:none;stroke-dashoffset:0;stroke-opacity:1;paint-order:fill markers stroke"
       id="path1905-1-1"
       cx="27.732895"
       cy="223.45955"
       r="2.6726952"
       inkscape:label="TRANSLATE_Y_MOD" />
    <circle
       transform="translate(0,-168.5)"
       style="opacity:1;fill:#ff0000;fill-opacity:1;stroke:none;stroke-width:1.05900002;stroke-linejoin:round;stroke-miterlimit:4;stroke-dasharray:none;stroke-dashoffset:0;stroke-opacity:1;paint-order:fill markers stroke"
       id="path1905-1-0"
       cx="39.728489"
       cy="215.72231"
       r="2.6726952"
       inkscape:label="TRANSLATE_X" />
    <circle
       transform="translate(0,-168.5)"
       style="opacity:1;fill:#ff0000;fill-opacity:1;stroke:none;stroke-width:1.05900002;stroke-linejoin:round;stroke-miterlimit:4;stroke-dasharray:none;stroke-dashoffset:0;stroke-opacity:1;paint-order:fill markers stroke"
       id="path1905-1-1-3"
       cx="39.670723"
       cy="223.69907"
       r="2.6726952"
       inkscape:label="TRANSLATE_Y" />
    <circle
       transform="translate(0,-168.5)"
       style="opacity:1;fill:#ff0000;fill-opacity:1;stroke:none;stroke-width:1.05900002;stroke-linejoin:round;stroke-miterlimit:4;stroke-dasharray:none;stroke-dashoffset:0;stroke-opacity:1;paint-order:fill markers stroke"
       id="path1905-1-4"
       cx="68.252129"
       cy="215.3568"
       r="2.6726952"
       inkscape:label="SCALE_X_MOD" />
    <circle
       transform="translate(0,-168.5)"
       style="opacity:1;fill:#ff0000;fill-opacity:1;stroke:none;stroke-width:1.05900002;stroke-linejoin:round;stroke-miterlimit:4;stroke-dasharray:none;stroke-dashoffset:0;stroke-opacity:1;paint-order:fill markers stroke"
       id="path1905-1-1-0"
       cx="68.194366"
       cy="223.33356"
       r="2.6726952"
       inkscape:label="SCALE_Y_MOD" />
    <circle
       transform="translate(0,-168.5)"
       style="opacity:1;fill:#ff0000;fill-opacity:1;stroke:none;stroke-width:1.05900002;stroke-linejoin:round;stroke-miterlimit:4;stroke-dasharray:none;stroke-dashoffset:0;stroke-opacity:1;paint-order:fill markers stroke"
       id="path1905-1-0-3"
       cx="80.189964"
       cy="215.59631"
       r="2.6726952"
       inkscape:label="SCALE_X" />
    <circle
       transform="translate(0,-168.5)"
       style="opacity:1;fill:#ff0000;fill-opacity:1;stroke:none;stroke-width:1.05900002;stroke-linejoin:round;stroke-miterlimit:4;stroke-dasharray:none;stroke-dashoffset:0;stroke-opacity:1;paint-order:fill markers stroke"
       id="path1905-1-1-3-9"
       cx="80.132195"
       cy="223.57307"
       r="2.6726952"
       inkscape:label="SCALE_Y" />
    <circle
       transform="translate(0,-168.5)"
       style="opacity:1;fill:#ff0000;fill-opacity:1;stroke:none;stroke-width:1.05900002;stroke-linejoin:round;stroke-miterlimit:4;stroke-dasharray:none;stroke-dashoffset:0;stroke-opacity:1;paint-order:fill markers stroke"
       id="path1905-1-19"
       cx="27.692951"
       cy="252.53246"
       r="2.6726952"
       inkscape:label="SKEW_X_MOD" />
    <circle
       transform="translate(0,-168.5)"
       style="opacity:1;fill:#ff0000;fill-opacity:1;stroke:none;stroke-width:1.05900002;stroke-linejoin:round;stroke-miterlimit:4;stroke-dasharray:none;stroke-dashoffset:0;stroke-opacity:1;paint-order:fill markers stroke"
       id="path1905-1-1-6"
       cx="27.635187"
       cy="260.50934"
       r="2.6726952"
       inkscape:label="SKEW_Y_MOD" />
    <circle
       transform="translate(0,-168.5)"
       style="opacity:1;fill:#ff0000;fill-opacity:1;stroke:none;stroke-width:1.05900002;stroke-linejoin:round;stroke-miterlimit:4;stroke-dasharray:none;stroke-dashoffset:0;stroke-opacity:1;paint-order:fill markers stroke"
       id="path1905-1-0-9"
       cx="39.630783"
       cy="252.77197"
       r="2.6726952"
       inkscape:label="SKEW_X" />
    <circle
       transform="translate(0,-168.5)"
       style="opacity:1;fill:#ff0000;fill-opacity:1;stroke:none;stroke-width:1.05900002;stroke-linejoin:round;stroke-miterlimit:4;stroke-dasharray:none;stroke-dashoffset:0;stroke-opacity:1;paint-order:fill markers stroke"
       id="path1905-1-1-3-3"
       cx="39.573017"
       cy="260.74887"
       r="2.6726952"
       inkscape:label="SKEW_Y" />
    <circle
       transform="translate(0,-168.5)"
       style="opacity:1;fill:#ff0000;fill-opacity:1;stroke:none;stroke-width:1.05900002;stroke-linejoin:round;stroke-miterlimit:4;stroke-dasharray:none;stroke-dashoffset:0;stroke-opacity:1;paint-order:fill markers stroke"
       id="path1905-1-0-9-3"
       cx="63.363041"
       cy="253.93195"
       r="2.6726952"
       inkscape:label="ROTATE_MOD" />
    <circle
       transform="translate(0,-168.5)"
       style="opacity:1;fill:#ff0000;fill-opacity:1;stroke:none;stroke-width:1.05900002;stroke-linejoin:round;stroke-miterlimit:4;stroke-dasharray:none;stroke-dashoffset:0;stroke-opacity:1;paint-order:fill markers stroke"
       id="path1905-1-0-9-8"
       cx="63.363041"
       cy="266.10291"
       r="2.6726952"
       inkscape:label="ROTATE" />
  </g>
</svg>
