<?xml version="1.0" encoding="UTF-8" standalone="no"?>
<!-- Created with Inkscape (http://www.inkscape.org/) -->

<svg
   xmlns:dc="http://purl.org/dc/elements/1.1/"
   xmlns:cc="http://creativecommons.org/ns#"
   xmlns:rdf="http://www.w3.org/1999/02/22-rdf-syntax-ns#"
   xmlns:svg="http://www.w3.org/2000/svg"
   xmlns="http://www.w3.org/2000/svg"
   xmlns:sodipodi="http://sodipodi.sourceforge.net/DTD/sodipodi-0.dtd"
   xmlns:inkscape="http://www.inkscape.org/namespaces/inkscape"
   width="20.32mm"
   height="128.5mm"
   viewBox="0 0 20.32 128.5"
   version="1.1"
   id="svg8"
   inkscape:version="0.92.5 (2060ec1f9f, 2020-04-08)"
   sodipodi:docname="CoordinateFolder.svg">
  <defs
     id="defs2" />
  <sodipodi:namedview
     id="base"
     pagecolor="#ffffff"
     bordercolor="#666666"
     borderopacity="1.0"
     inkscape:pageopacity="0.0"
     inkscape:pageshadow="2"
     inkscape:zoom="1.4"
     inkscape:cx="-123.20167"
     inkscape:cy="262.79345"
     inkscape:document-units="mm"
     inkscape:current-layer="layer1"
     showgrid="false"
     inkscape:window-width="1366"
     inkscape:window-height="720"
     inkscape:window-x="0"
     inkscape:window-y="0"
     inkscape:window-maximized="1" />
  <metadata
     id="metadata5">
    <rdf:RDF>
      <cc:Work
         rdf:about="">
        <dc:format>image/svg+xml</dc:format>
        <dc:type
           rdf:resource="http://purl.org/dc/dcmitype/StillImage" />
        <dc:title />
      </cc:Work>
    </rdf:RDF>
  </metadata>
  <g
     inkscape:label="Layer 1"
     inkscape:groupmode="layer"
     id="layer1"
     transform="translate(0,-168.5)">
    <rect
       style="opacity:1;fill:#4a412a;fill-opacity:1;stroke:none;stroke-width:0.42714185;stroke-linejoin:bevel;stroke-miterlimit:4;stroke-dasharray:none;stroke-dashoffset:0;stroke-opacity:1;paint-order:fill markers stroke"
       id="rect817"
       width="20.32"
       height="128.5"
       x="0"
       y="168.5" />
    <g
       aria-label="X"
       inkscape:transform-center-x="-1.0690781"
       inkscape:transform-center-y="2.7338664e-06"
       style="font-style:normal;font-variant:normal;font-weight:500;font-stretch:normal;font-size:5.64444447px;line-height:1.25;font-family:aakar;-inkscape-font-specification:'aakar, Medium';font-variant-ligatures:normal;font-variant-caps:normal;font-variant-numeric:normal;font-feature-settings:normal;text-align:start;letter-spacing:0px;word-spacing:0px;writing-mode:lr-tb;text-anchor:start;fill:#b5bed5;fill-opacity:1;stroke:none;stroke-width:0.26458332"
       id="text4585"
       transform="translate(7.0290867,74.864297)">
      <path
         d="m 11.176649,183.22155 v 0.10473 q -0.242534,0 -0.374826,0.0772 -0.170877,0.0992 -0.446485,0.44097 l -0.8047738,1.00321 1.0583328,1.51033 q 0.165365,0.23702 0.275608,0.32522 0.115755,0.0827 0.336241,0.0827 v 0.10473 H 9.5836371 v -0.10473 q 0.1929253,0 0.253559,-0.011 0.1708769,-0.0276 0.1708769,-0.17639 0,-0.0661 -0.1047311,-0.24805 -0.071658,-0.12127 -0.1763889,-0.27561 l -0.5236545,-0.7717 -0.6559461,0.8158 q -0.1378039,0.17088 -0.1874132,0.24253 -0.099219,0.14332 -0.099219,0.22049 0,0.11575 0.1157552,0.15985 0.1157552,0.0441 0.3031684,0.0441 v 0.10473 H 7.3953124 v -0.10473 q 0.2480469,0 0.4354601,-0.19293 0.060634,-0.0606 0.3638021,-0.43546 l 0.865408,-1.06384 -0.6008247,-0.88195 Q 8.1229166,183.7011 7.8693576,183.45857 7.7315537,183.32628 7.4614582,183.32628 v -0.10473 h 1.6646702 v 0.10473 q -0.2204861,0 -0.253559,0.006 -0.1653646,0.0276 -0.1653646,0.17087 0,0.0827 0.099219,0.25908 0.1047309,0.17638 0.3693143,0.55672 l 0.2315104,0.32522 0.6228725,-0.76068 q 0.06615,-0.0882 0.121268,-0.15985 0.09922,-0.1378 0.09922,-0.21497 0,-0.11576 -0.104731,-0.14883 -0.09922,-0.0331 -0.2811198,-0.0331 v -0.10473 z"
         style="stroke-width:0.26458332"
         id="path1631"
         inkscape:connector-curvature="0" />
    </g>
    <g
       aria-label="Y "
       inkscape:transform-center-x="-1.0690781"
       inkscape:transform-center-y="2.7338664e-06"
       style="font-style:normal;font-variant:normal;font-weight:500;font-stretch:normal;font-size:5.64444447px;line-height:1.25;font-family:aakar;-inkscape-font-specification:'aakar, Medium';font-variant-ligatures:normal;font-variant-caps:normal;font-variant-numeric:normal;font-feature-settings:normal;text-align:start;letter-spacing:0px;word-spacing:0px;writing-mode:lr-tb;text-anchor:start;fill:#b5bed5;fill-opacity:1;stroke:none;stroke-width:0.26458332"
       id="text4585-8"
       transform="translate(8.0874197,64.810128)">
      <path
         d="m 10.261283,202.26662 v 0.10473 q -0.248047,0.0276 -0.4023867,0.17088 -0.148828,0.1378 -0.35829,0.4575 l -0.8157984,1.24575 v 1.06936 q 0,0.30868 0.09922,0.40239 0.09922,0.0937 0.4685327,0.0937 v 0.10473 H 7.5658407 v -0.10473 q 0.3803385,0 0.4795575,-0.12127 0.07717,-0.0937 0.07717,-0.43546 v -0.95911 L 7.400476,203.23676 Q 7.0587226,202.73515 6.8382365,202.50364 6.711457,202.37135 6.5075074,202.37135 v -0.10473 h 1.5434028 v 0.10473 q -0.165365,0 -0.2811198,0.0221 -0.1102431,0.0165 -0.1102431,0.14883 0,0.0441 0.027561,0.11575 0.033073,0.0717 0.066146,0.12127 l 0.8157986,1.2237 0.7882377,-1.24575 q 0.0441,-0.0717 0.06063,-0.10473 0.01654,-0.0386 0.01654,-0.0992 0,-0.11576 -0.104731,-0.14883 -0.104731,-0.0331 -0.275608,-0.0331 v -0.10473 z"
         style="stroke-width:0.26458332"
         id="path1634"
         inkscape:connector-curvature="0" />
    </g>
    <circle
       style="opacity:1;fill:#1a160e;fill-opacity:1;stroke:none;stroke-width:1.34206676;stroke-linejoin:round;stroke-miterlimit:4;stroke-dasharray:none;stroke-dashoffset:0;stroke-opacity:1;paint-order:fill markers stroke"
       id="path1054"
       cx="8.4874191"
       cy="-267.91144"
       r="5.25"
       transform="scale(1,-1)" />
    <circle
       style="opacity:1;fill:#1a160e;fill-opacity:1;stroke:none;stroke-width:1.34206676;stroke-linejoin:round;stroke-miterlimit:4;stroke-dasharray:none;stroke-dashoffset:0;stroke-opacity:1;paint-order:fill markers stroke"
       id="path1054-4"
       cx="8.4874191"
       cy="-259.46643"
       r="5.25"
       transform="scale(1,-1)" />
    <circle
       style="opacity:1;fill:#1a160e;fill-opacity:1;stroke:none;stroke-width:1.34206688;stroke-linejoin:round;stroke-miterlimit:4;stroke-dasharray:none;stroke-dashoffset:0;stroke-opacity:1;paint-order:fill markers stroke"
       id="path1054-3"
       cx="7.9582524"
       cy="-227.4693"
       r="5.25"
       transform="scale(1,-1)" />
    <rect
       style="opacity:1;fill:#1a160e;fill-opacity:1;stroke:none;stroke-width:0.7671234;stroke-linejoin:round;stroke-miterlimit:4;stroke-dasharray:none;stroke-dashoffset:0;stroke-opacity:1;paint-order:fill markers stroke"
       id="rect1113"
       width="10.5"
       height="8"
       x="3.2374187"
       y="-268.63989"
       transform="scale(1,-1)" />
    <rect
       style="opacity:1;fill:#1a160e;fill-opacity:1;stroke:none;stroke-width:0.88836384;stroke-linejoin:round;stroke-miterlimit:4;stroke-dasharray:none;stroke-dashoffset:0;stroke-opacity:1;paint-order:fill markers stroke"
       id="rect1130"
       width="1.6036172"
       height="5.0781207"
       x="7.5374217"
       y="-276.53632"
       transform="scale(1,-1)" />
    <g
       aria-label="MODE"
       inkscape:transform-center-x="-1.0690781"
       inkscape:transform-center-y="2.7338664e-06"
       style="font-style:normal;font-variant:normal;font-weight:500;font-stretch:normal;font-size:5.64444447px;line-height:1.25;font-family:aakar;-inkscape-font-specification:'aakar, Medium';font-variant-ligatures:normal;font-variant-caps:normal;font-variant-numeric:normal;font-feature-settings:normal;text-align:start;letter-spacing:0px;word-spacing:0px;writing-mode:lr-tb;text-anchor:start;fill:#b5bed5;fill-opacity:1;stroke:none;stroke-width:0.26458332"
       id="text4585-8-3"
       transform="translate(-0.07352989,-50.568621)">
      <path
         d="m 7.1816223,267.04627 v 0.10473 q -0.2756076,0 -0.3803385,0.0937 -0.099219,0.0882 -0.099219,0.40239 v 2.4474 q 0,0.30868 0.099219,0.40238 0.099219,0.0937 0.3803385,0.0937 v 0.10473 H 5.6382195 v -0.10473 q 0.3252171,0 0.4134115,-0.0992 0.088194,-0.10473 0.088194,-0.45751 v -2.47495 l -1.4111111,3.13641 h -0.07717 l -1.3725261,-3.00963 v 2.19935 q 0,0.42443 0.099219,0.56775 0.099219,0.1378 0.4078993,0.1378 v 0.10473 H 2.4907803 v -0.10473 q 0.325217,0 0.4299479,-0.13229 0.1047309,-0.13229 0.1047309,-0.57326 v -2.23794 q 0,-0.31419 -0.1047309,-0.40239 -0.099219,-0.0937 -0.4189236,-0.0937 v -0.10473 h 1.0914062 l 1.2733073,2.78363 1.2181858,-2.78363 z"
         style="stroke-width:0.26458332"
         id="path875"
         inkscape:connector-curvature="0" />
      <path
         d="m 9.3148255,270.77248 q -0.7661893,0 -1.2733073,-0.50712 -0.5291667,-0.52916 -0.5291667,-1.38906 0,-0.89848 0.5622396,-1.42765 0.507118,-0.47955 1.2402344,-0.47955 0.7386285,0 1.2402345,0.47404 0.562239,0.52917 0.562239,1.43316 0,0.8599 -0.523654,1.38906 -0.501606,0.50712 -1.2788195,0.50712 z m 0,-0.19843 q 0.5016059,0 0.8157985,-0.39688 0.35829,-0.452 0.35829,-1.30638 0,-0.87092 -0.374826,-1.32292 -0.3141931,-0.38034 -0.7992625,-0.38034 -0.4850695,0 -0.7992622,0.38034 -0.3748264,0.452 -0.3748264,1.32292 0,0.85438 0.3582899,1.30638 0.3141928,0.39688 0.8157987,0.39688 z"
         style="stroke-width:0.26458332"
         id="path877"
         inkscape:connector-curvature="0" />
      <path
         d="m 11.392907,270.69531 v -0.10473 q 0.308681,0 0.396875,-0.0992 0.08819,-0.0992 0.08819,-0.39687 v -2.4474 q 0,-0.31419 -0.08819,-0.40239 -0.08268,-0.0937 -0.396875,-0.0937 v -0.10473 h 1.488281 q 1.019749,0 1.593013,0.45199 0.606336,0.47956 0.606336,1.38355 0,0.70005 -0.424435,1.1796 -0.56224,0.6339 -1.697743,0.6339 z m 1.047309,-3.23012 v 2.80017 q 0,0.13781 0.06615,0.18191 0.06615,0.0441 0.264583,0.0441 0.35829,0 0.595313,-0.0551 0.474045,-0.11024 0.749653,-0.41892 0.363802,-0.40239 0.363802,-1.12999 0,-0.38034 -0.115755,-0.68902 -0.115756,-0.3142 -0.396875,-0.56224 -0.220487,-0.19844 -0.468533,-0.28112 -0.308681,-0.10473 -0.799263,-0.10473 -0.170876,0 -0.225998,0.0661 -0.03307,0.0386 -0.03307,0.14883 z"
         style="stroke-width:0.26458332"
         id="path879"
         inkscape:connector-curvature="0" />
      <path
         d="m 18.575242,269.76376 -0.248047,0.93155 h -2.976563 v -0.10473 q 0.275608,0 0.374827,-0.0937 0.10473,-0.0992 0.10473,-0.40238 v -2.4474 q 0,-0.31419 -0.09922,-0.40239 -0.09922,-0.0937 -0.380339,-0.0937 v -0.10473 h 2.926953 v 0.78824 h -0.121267 q -0.06063,-0.36381 -0.220486,-0.46854 -0.15434,-0.11024 -0.617361,-0.11024 H 16.57433 q -0.104731,0 -0.143316,0.0331 -0.03859,0.0276 -0.03859,0.15434 v 1.2237 h 0.848872 q 0.352777,0 0.451996,-0.0992 0.104731,-0.10473 0.15434,-0.42443 h 0.12678 v 1.27882 h -0.12678 q -0.04961,-0.33073 -0.159852,-0.42444 -0.104731,-0.0992 -0.446484,-0.0992 h -0.848872 v 1.35599 q 0,0.17088 0.104731,0.20395 0.110243,0.0276 0.71658,0.0276 0.523654,0 0.771701,-0.14883 0.248047,-0.14883 0.43546,-0.57326 z"
         style="stroke-width:0.26458332"
         id="path881"
         inkscape:connector-curvature="0" />
    </g>
    <g
       aria-label="X"
       inkscape:transform-center-x="-1.0690781"
       inkscape:transform-center-y="2.7338664e-06"
       style="font-style:normal;font-variant:normal;font-weight:500;font-stretch:normal;font-size:5.64444447px;line-height:1.25;font-family:aakar;-inkscape-font-specification:'aakar, Medium';font-variant-ligatures:normal;font-variant-caps:normal;font-variant-numeric:normal;font-feature-settings:normal;text-align:start;letter-spacing:0px;word-spacing:0px;writing-mode:lr-tb;text-anchor:start;fill:#b5bed5;fill-opacity:1;stroke:none;stroke-width:0.26458332"
       id="text4585-4"
       transform="translate(7.3909161,7.9568421)">
      <path
         d="m 11.176649,183.22155 v 0.10473 q -0.242534,0 -0.374826,0.0772 -0.170877,0.0992 -0.446485,0.44097 l -0.8047738,1.00321 1.0583328,1.51033 q 0.165365,0.23702 0.275608,0.32522 0.115755,0.0827 0.336241,0.0827 v 0.10473 H 9.5836371 v -0.10473 q 0.1929253,0 0.253559,-0.011 0.1708769,-0.0276 0.1708769,-0.17639 0,-0.0661 -0.1047311,-0.24805 -0.071658,-0.12127 -0.1763889,-0.27561 l -0.5236545,-0.7717 -0.6559461,0.8158 q -0.1378039,0.17088 -0.1874132,0.24253 -0.099219,0.14332 -0.099219,0.22049 0,0.11575 0.1157552,0.15985 0.1157552,0.0441 0.3031684,0.0441 v 0.10473 H 7.3953124 v -0.10473 q 0.2480469,0 0.4354601,-0.19293 0.060634,-0.0606 0.3638021,-0.43546 l 0.865408,-1.06384 -0.6008247,-0.88195 Q 8.1229166,183.7011 7.8693576,183.45857 7.7315537,183.32628 7.4614582,183.32628 v -0.10473 h 1.6646702 v 0.10473 q -0.2204861,0 -0.253559,0.006 -0.1653646,0.0276 -0.1653646,0.17087 0,0.0827 0.099219,0.25908 0.1047309,0.17638 0.3693143,0.55672 l 0.2315104,0.32522 0.6228725,-0.76068 q 0.06615,-0.0882 0.121268,-0.15985 0.09922,-0.1378 0.09922,-0.21497 0,-0.11576 -0.104731,-0.14883 -0.09922,-0.0331 -0.2811198,-0.0331 v -0.10473 z"
         style="stroke-width:0.26458332"
         id="path1631-3"
         inkscape:connector-curvature="0" />
    </g>
    <g
       aria-label="Y "
       inkscape:transform-center-x="-1.0690781"
       inkscape:transform-center-y="2.7338664e-06"
       style="font-style:normal;font-variant:normal;font-weight:500;font-stretch:normal;font-size:5.64444447px;line-height:1.25;font-family:aakar;-inkscape-font-specification:'aakar, Medium';font-variant-ligatures:normal;font-variant-caps:normal;font-variant-numeric:normal;font-feature-settings:normal;text-align:start;letter-spacing:0px;word-spacing:0px;writing-mode:lr-tb;text-anchor:start;fill:#b5bed5;fill-opacity:1;stroke:none;stroke-width:0.26458332"
       id="text4585-8-33"
       transform="translate(8.4492489,-2.0973268)">
      <path
         d="m 10.261283,202.26662 v 0.10473 q -0.248047,0.0276 -0.4023867,0.17088 -0.148828,0.1378 -0.35829,0.4575 l -0.8157984,1.24575 v 1.06936 q 0,0.30868 0.09922,0.40239 0.09922,0.0937 0.4685327,0.0937 v 0.10473 H 7.5658407 v -0.10473 q 0.3803385,0 0.4795575,-0.12127 0.07717,-0.0937 0.07717,-0.43546 v -0.95911 L 7.400476,203.23676 Q 7.0587226,202.73515 6.8382365,202.50364 6.711457,202.37135 6.5075074,202.37135 v -0.10473 h 1.5434028 v 0.10473 q -0.165365,0 -0.2811198,0.0221 -0.1102431,0.0165 -0.1102431,0.14883 0,0.0441 0.027561,0.11575 0.033073,0.0717 0.066146,0.12127 l 0.8157986,1.2237 0.7882377,-1.24575 q 0.0441,-0.0717 0.06063,-0.10473 0.01654,-0.0386 0.01654,-0.0992 0,-0.11576 -0.104731,-0.14883 -0.104731,-0.0331 -0.275608,-0.0331 v -0.10473 z"
         style="stroke-width:0.26458332"
         id="path1634-8"
         inkscape:connector-curvature="0" />
    </g>
    <circle
       style="opacity:1;fill:#1a160e;fill-opacity:1;stroke:none;stroke-width:1.34206676;stroke-linejoin:round;stroke-miterlimit:4;stroke-dasharray:none;stroke-dashoffset:0;stroke-opacity:1;paint-order:fill markers stroke"
       id="path1054-6"
       cx="8.8492508"
       cy="192.86272"
       r="5.25" />
    <circle
       style="opacity:1;fill:#1a160e;fill-opacity:1;stroke:none;stroke-width:1.34206676;stroke-linejoin:round;stroke-miterlimit:4;stroke-dasharray:none;stroke-dashoffset:0;stroke-opacity:1;paint-order:fill markers stroke"
       id="path1054-4-0"
       cx="8.8492508"
       cy="201.30748"
       r="5.25" />
    <circle
       style="opacity:1;fill:#1a160e;fill-opacity:1;stroke:none;stroke-width:1.34206688;stroke-linejoin:round;stroke-miterlimit:4;stroke-dasharray:none;stroke-dashoffset:0;stroke-opacity:1;paint-order:fill markers stroke"
       id="path1054-3-4"
       cx="8.8492508"
       cy="180.91734"
       r="5.25" />
    <rect
       style="opacity:1;fill:#1a160e;fill-opacity:1;stroke:none;stroke-width:0.7671234;stroke-linejoin:round;stroke-miterlimit:4;stroke-dasharray:none;stroke-dashoffset:0;stroke-opacity:1;paint-order:fill markers stroke"
       id="rect1113-8"
       width="10.5"
       height="8"
       x="3.5992489"
       y="192.13423" />
    <rect
       style="opacity:1;fill:#1a160e;fill-opacity:1;stroke:none;stroke-width:0.88836384;stroke-linejoin:round;stroke-miterlimit:4;stroke-dasharray:none;stroke-dashoffset:0;stroke-opacity:1;paint-order:fill markers stroke"
       id="rect1130-8"
       width="1.6036172"
       height="5.0781207"
       x="7.8992534"
       y="184.23784" />
    <g
       aria-label="amount"
       inkscape:transform-center-x="-1.0690781"
       inkscape:transform-center-y="2.7338664e-06"
       style="font-style:normal;font-variant:normal;font-weight:500;font-stretch:normal;font-size:5.64444447px;line-height:1.25;font-family:aakar;-inkscape-font-specification:'aakar, Medium';font-variant-ligatures:normal;font-variant-caps:normal;font-variant-numeric:normal;font-feature-settings:normal;text-align:start;letter-spacing:0px;word-spacing:0px;writing-mode:lr-tb;text-anchor:start;fill:#b5bed5;fill-opacity:1;stroke:none;stroke-width:0.26458332"
       id="text4585-8-3-4"
       transform="translate(0,8.9958338)">
      <path
         d="m 3.2974876,239.76334 v -0.79927 q -0.5457031,0.1819 -0.7551649,0.41893 -0.1378038,0.15434 -0.1378038,0.35277 0,0.19844 0.1047309,0.31971 0.1047309,0.12127 0.2590711,0.12127 0.082682,0 0.1819011,-0.0331 0.099219,-0.0331 0.1598524,-0.0661 0.1212674,-0.0551 0.1543403,-0.11576 0.033073,-0.0661 0.033073,-0.19843 z m 0.8543837,0.31419 v 0.14331 q -0.1488281,0.17639 -0.2976563,0.23703 -0.093707,0.0386 -0.1929253,0.0386 -0.1378038,0 -0.214974,-0.0496 -0.1433159,-0.0937 -0.1433159,-0.35278 -0.2039497,0.18191 -0.35829,0.2701 -0.2315104,0.13229 -0.4409722,0.13229 -0.2370226,0 -0.4134115,-0.15434 -0.1708767,-0.15434 -0.1708767,-0.41892 0,-0.37483 0.3527778,-0.61736 0.2425347,-0.16537 1.0252604,-0.47405 v -0.33624 q 0,-0.25907 -0.1488281,-0.37483 -0.1102431,-0.0827 -0.2756077,-0.0827 -0.1488281,0 -0.2700954,0.0772 -0.1212674,0.0717 -0.1212674,0.19293 0,0.0551 0.00551,0.11575 0.011024,0.0551 0.022049,0.0992 0,0.0937 -0.071658,0.16537 -0.071658,0.0717 -0.1763889,0.0717 -0.1157552,0 -0.1763889,-0.0772 -0.060634,-0.0827 -0.060634,-0.16536 0,-0.20395 0.2094618,-0.38585 0.2590712,-0.226 0.6890191,-0.226 0.5346788,0 0.7165799,0.31419 0.1047309,0.1819 0.1047309,0.56775 v 1.07487 q 0,0.17088 0.022049,0.24805 0.027561,0.0717 0.1378038,0.0717 0.07717,0 0.1322917,-0.0276 0.055122,-0.0276 0.1157552,-0.0772 z"
         style="stroke-width:0.26458332"
         id="path1523"
         inkscape:connector-curvature="0" />
      <path
         d="m 4.6369407,239.9728 v -1.39458 q 0,-0.23151 -0.060634,-0.30317 -0.038585,-0.0496 -0.1322916,-0.0496 -0.088194,0 -0.1763889,0.0221 v -0.0937 q 0.396875,-0.11025 0.7717014,-0.24805 l 0.038585,0.011 v 0.41342 q 0.2921441,-0.22049 0.4354601,-0.30317 0.214974,-0.12127 0.4134115,-0.12127 0.2480468,0 0.4078993,0.14332 0.1267795,0.11575 0.181901,0.3197 0.1488281,-0.17088 0.3197049,-0.28112 0.2811198,-0.1819 0.5677517,-0.1819 0.3803385,0 0.540191,0.33624 0.110243,0.23702 0.110243,0.64492 v 1.13551 q 0,0.13229 0.027561,0.19292 0.049609,0.10473 0.2094618,0.13229 l 0.143316,0.011 v 0.0827 H 7.2276525 v -0.0827 q 0.2315104,-0.0276 0.286632,-0.0772 0.07717,-0.0661 0.07717,-0.31971 v -1.16306 q 0,-0.29215 -0.049609,-0.4079 -0.088194,-0.19844 -0.3527778,-0.19844 -0.2204861,0 -0.3748263,0.0937 -0.1322917,0.0772 -0.2370226,0.24253 v 1.38907 q 0,0.28663 0.110243,0.37482 0.082682,0.0662 0.286632,0.0662 v 0.0827 H 5.7393713 v -0.0827 q 0.2094618,0 0.2811198,-0.0606 0.093707,-0.0772 0.093707,-0.33073 v -1.19613 q 0,-0.28663 -0.088195,-0.42995 -0.088194,-0.14883 -0.2921441,-0.14883 -0.2480469,0 -0.4575087,0.14883 -0.1763889,0.12127 -0.1763889,0.17639 v 1.55443 q 0,0.1819 0.1157552,0.24253 0.082682,0.0441 0.2590712,0.0441 v 0.0827 H 4.25109 v -0.0827 q 0.2039497,0 0.2756076,-0.0496 0.1102431,-0.0772 0.1102431,-0.33624 z"
         style="stroke-width:0.26458332"
         id="path1525"
         inkscape:connector-curvature="0" />
      <path
         d="m 9.801828,237.90574 q 0.556727,0 0.898481,0.34175 0.341753,0.34176 0.341753,0.93707 0,0.47404 -0.297656,0.85989 -0.347265,0.452 -0.9260415,0.452 -0.5291667,0 -0.8709202,-0.36931 -0.3362413,-0.37483 -0.3362413,-0.94258 0,-0.53468 0.3141927,-0.89297 0.3362413,-0.38585 0.8764323,-0.38585 z m 0.093707,2.43637 q 0.259071,0 0.429948,-0.19844 0.220486,-0.25907 0.220486,-0.79926 0,-0.53468 -0.209462,-0.9095 -0.209462,-0.37483 -0.5787758,-0.37483 -0.2756077,0 -0.4630209,0.226 -0.1874131,0.22048 -0.1874131,0.6339 0,0.47955 0.1433159,0.85989 0.2094618,0.56224 0.6449219,0.56224 z"
         style="stroke-width:0.26458332"
         id="path1527"
         inkscape:connector-curvature="0" />
      <path
         d="m 13.847748,240.16572 v 0.0772 q -0.214974,0.0551 -0.396875,0.11576 -0.0441,0.0165 -0.369314,0.13229 l -0.01102,-0.011 v -0.45751 l -0.237023,0.23702 q -0.104731,0.10473 -0.264583,0.17088 -0.154341,0.0661 -0.314193,0.0661 -0.237023,0 -0.413412,-0.1378 -0.242534,-0.18742 -0.242534,-0.57878 v -1.38906 q 0,-0.22049 -0.104731,-0.29766 -0.07717,-0.0551 -0.237023,-0.0551 v -0.0772 h 0.804775 v 1.79696 q 0,0.12678 0.06614,0.23703 0.110243,0.1819 0.347266,0.1819 0.132292,0 0.237023,-0.0441 0.110243,-0.0496 0.242534,-0.15434 0.03858,-0.0331 0.06063,-0.0937 0.02756,-0.0661 0.02756,-0.18741 v -1.29536 q 0,-0.19292 -0.05512,-0.25356 -0.08268,-0.0937 -0.352778,-0.0937 v -0.0937 h 0.870921 v 1.89067 q 0,0.17639 0.0441,0.23151 0.06615,0.0827 0.297656,0.0827 z"
         style="stroke-width:0.26458332"
         id="path1529"
         inkscape:connector-curvature="0" />
      <path
         d="m 14.404475,239.94524 v -1.36702 q 0,-0.23151 -0.06063,-0.30317 -0.03858,-0.0496 -0.132291,-0.0496 -0.115756,0 -0.159853,0.0221 v -0.0937 q 0.4079,-0.11576 0.760677,-0.24805 l 0.03858,0.011 v 0.43546 q 0.259072,-0.24253 0.380339,-0.3197 0.198437,-0.12678 0.424436,-0.12678 0.248047,0 0.413411,0.15434 0.231511,0.21497 0.231511,0.67248 v 1.26229 q 0,0.19843 0.07166,0.28112 0.07166,0.0827 0.264583,0.0827 v 0.0827 H 15.49037 v -0.0827 q 0.176389,0 0.248047,-0.0717 0.09922,-0.10473 0.09922,-0.39136 v -1.15204 q 0,-0.26459 -0.09371,-0.39688 -0.09371,-0.1378 -0.330729,-0.1378 -0.12678,0 -0.253559,0.0772 -0.12678,0.0772 -0.292144,0.23702 v 1.54892 q 0,0.14331 0.07717,0.21497 0.08268,0.0717 0.286632,0.0717 v 0.0827 h -1.168576 v -0.0827 q 0.192925,0 0.264583,-0.0827 0.07717,-0.0882 0.07717,-0.33073 z"
         style="stroke-width:0.26458332"
         id="path1531"
         inkscape:connector-curvature="0" />
      <path
         d="m 18.125179,237.96086 v 0.17639 h -0.556728 v 1.57648 q 0,0.20946 0.03307,0.30868 0.06615,0.18741 0.248047,0.18741 0.121267,0 0.209462,-0.0662 0.04961,-0.0386 0.126779,-0.12678 l 0.07166,0.0606 q -0.09922,0.1819 -0.28112,0.30317 -0.176388,0.11575 -0.363802,0.11575 -0.23151,0 -0.35829,-0.14331 -0.148828,-0.17088 -0.148828,-0.55673 v -1.65916 h -0.292144 l -0.02205,-0.0386 q 0,-0.0331 0.110243,-0.11025 0.07166,-0.0496 0.132291,-0.11024 0.12678,-0.13229 0.248047,-0.28663 0.09371,-0.12127 0.248047,-0.34176 0.03859,0 0.03859,0.0717 v 0.63941 z"
         style="stroke-width:0.26458332"
         id="path1533"
         inkscape:connector-curvature="0" />
    </g>
    <rect
       style="opacity:1;fill:#1a160e;fill-opacity:1;stroke:none;stroke-width:0.88836384;stroke-linejoin:round;stroke-miterlimit:4;stroke-dasharray:none;stroke-dashoffset:0;stroke-opacity:1;paint-order:fill markers stroke"
       id="rect1130-4"
       width="1.6036172"
       height="5.0781207"
       x="-149.35019"
       y="-181.54126"
       transform="matrix(0.73285257,-0.68038747,-0.68038747,-0.73285257,0,0)" />
    <circle
       style="opacity:1;fill:#1a160e;fill-opacity:1;stroke:none;stroke-width:1.34206688;stroke-linejoin:round;stroke-miterlimit:4;stroke-dasharray:none;stroke-dashoffset:0;stroke-opacity:1;paint-order:fill markers stroke"
       id="path1054-3-3"
       cx="8.3910723"
       cy="-279.53748"
       r="5.25"
       transform="scale(1,-1)" />
    <rect
       style="opacity:1;fill:#1a160e;fill-opacity:1;stroke:none;stroke-width:0.88836384;stroke-linejoin:round;stroke-miterlimit:4;stroke-dasharray:none;stroke-dashoffset:0;stroke-opacity:1;paint-order:fill markers stroke"
       id="rect1130-4-3"
       width="1.6036172"
       height="5.0781207"
       x="-153.54774"
       y="-186.35957"
       transform="rotate(-143.42089)" />
  </g>
  <g
     inkscape:groupmode="layer"
     id="layer2"
     inkscape:label="components" />
</svg>
