<?xml version="1.0" encoding="UTF-8" standalone="no"?>
<!-- Created with Inkscape (http://www.inkscape.org/) -->

<svg
   xmlns:dc="http://purl.org/dc/elements/1.1/"
   xmlns:cc="http://creativecommons.org/ns#"
   xmlns:rdf="http://www.w3.org/1999/02/22-rdf-syntax-ns#"
   xmlns:svg="http://www.w3.org/2000/svg"
   xmlns="http://www.w3.org/2000/svg"
   xmlns:sodipodi="http://sodipodi.sourceforge.net/DTD/sodipodi-0.dtd"
   xmlns:inkscape="http://www.inkscape.org/namespaces/inkscape"
   width="20.32mm"
   height="128.5mm"
   viewBox="0 0 20.32 128.5"
   version="1.1"
   id="svg8"
   inkscape:version="0.92.5 (2060ec1f9f, 2020-04-08)"
   sodipodi:docname="PathGenerator.svg">
  <defs
     id="defs2" />
  <sodipodi:namedview
     id="base"
     pagecolor="#ffffff"
     bordercolor="#666666"
     borderopacity="1.0"
     inkscape:pageopacity="0.0"
     inkscape:pageshadow="2"
     inkscape:zoom="0.98994949"
     inkscape:cx="-231.79474"
     inkscape:cy="239.1878"
     inkscape:document-units="mm"
     inkscape:current-layer="layer1"
     showgrid="false"
     inkscape:window-width="1366"
     inkscape:window-height="720"
     inkscape:window-x="0"
     inkscape:window-y="0"
     inkscape:window-maximized="1" />
  <metadata
     id="metadata5">
    <rdf:RDF>
      <cc:Work
         rdf:about="">
        <dc:format>image/svg+xml</dc:format>
        <dc:type
           rdf:resource="http://purl.org/dc/dcmitype/StillImage" />
        <dc:title></dc:title>
      </cc:Work>
    </rdf:RDF>
  </metadata>
  <g
     inkscape:label="Layer 1"
     inkscape:groupmode="layer"
     id="layer1"
     transform="translate(0,-168.5)">
    <rect
       style="opacity:1;fill:#4a412a;fill-opacity:1;stroke:none;stroke-width:0.42714185;stroke-linejoin:bevel;stroke-miterlimit:4;stroke-dasharray:none;stroke-dashoffset:0;stroke-opacity:1;paint-order:fill markers stroke"
       id="rect817"
       width="20.32"
       height="128.5"
       x="0"
       y="168.5" />
    <g
       aria-label="X"
       inkscape:transform-center-x="-1.0690781"
       inkscape:transform-center-y="2.7338664e-06"
       style="font-style:normal;font-variant:normal;font-weight:500;font-stretch:normal;font-size:5.64444447px;line-height:1.25;font-family:aakar;-inkscape-font-specification:'aakar, Medium';font-variant-ligatures:normal;font-variant-caps:normal;font-variant-numeric:normal;font-feature-settings:normal;text-align:start;letter-spacing:0px;word-spacing:0px;writing-mode:lr-tb;text-anchor:start;fill:#b5bed5;fill-opacity:1;stroke:none;stroke-width:0.26458332"
       id="text4585"
       transform="translate(7.0290867,74.864297)">
      <path
         d="m 11.176649,183.22155 v 0.10473 q -0.242534,0 -0.374826,0.0772 -0.170877,0.0992 -0.446485,0.44097 l -0.8047738,1.00321 1.0583328,1.51033 q 0.165365,0.23702 0.275608,0.32522 0.115755,0.0827 0.336241,0.0827 v 0.10473 H 9.5836371 v -0.10473 q 0.1929253,0 0.253559,-0.011 0.1708769,-0.0276 0.1708769,-0.17639 0,-0.0661 -0.1047311,-0.24805 -0.071658,-0.12127 -0.1763889,-0.27561 l -0.5236545,-0.7717 -0.6559461,0.8158 q -0.1378039,0.17088 -0.1874132,0.24253 -0.099219,0.14332 -0.099219,0.22049 0,0.11575 0.1157552,0.15985 0.1157552,0.0441 0.3031684,0.0441 v 0.10473 H 7.3953124 v -0.10473 q 0.2480469,0 0.4354601,-0.19293 0.060634,-0.0606 0.3638021,-0.43546 l 0.865408,-1.06384 -0.6008247,-0.88195 Q 8.1229166,183.7011 7.8693576,183.45857 7.7315537,183.32628 7.4614582,183.32628 v -0.10473 h 1.6646702 v 0.10473 q -0.2204861,0 -0.253559,0.006 -0.1653646,0.0276 -0.1653646,0.17087 0,0.0827 0.099219,0.25908 0.1047309,0.17638 0.3693143,0.55672 l 0.2315104,0.32522 0.6228725,-0.76068 q 0.06615,-0.0882 0.121268,-0.15985 0.09922,-0.1378 0.09922,-0.21497 0,-0.11576 -0.104731,-0.14883 -0.09922,-0.0331 -0.2811198,-0.0331 v -0.10473 z"
         style="stroke-width:0.26458332"
         id="path1631"
         inkscape:connector-curvature="0" />
    </g>
    <g
       aria-label="Y "
       inkscape:transform-center-x="-1.0690781"
       inkscape:transform-center-y="2.7338664e-06"
       style="font-style:normal;font-variant:normal;font-weight:500;font-stretch:normal;font-size:5.64444447px;line-height:1.25;font-family:aakar;-inkscape-font-specification:'aakar, Medium';font-variant-ligatures:normal;font-variant-caps:normal;font-variant-numeric:normal;font-feature-settings:normal;text-align:start;letter-spacing:0px;word-spacing:0px;writing-mode:lr-tb;text-anchor:start;fill:#b5bed5;fill-opacity:1;stroke:none;stroke-width:0.26458332"
       id="text4585-8"
       transform="translate(8.0874197,64.810128)">
      <path
         d="m 10.261283,202.26662 v 0.10473 q -0.248047,0.0276 -0.4023867,0.17088 -0.148828,0.1378 -0.35829,0.4575 l -0.8157984,1.24575 v 1.06936 q 0,0.30868 0.09922,0.40239 0.09922,0.0937 0.4685327,0.0937 v 0.10473 H 7.5658407 v -0.10473 q 0.3803385,0 0.4795575,-0.12127 0.07717,-0.0937 0.07717,-0.43546 v -0.95911 L 7.400476,203.23676 Q 7.0587226,202.73515 6.8382365,202.50364 6.711457,202.37135 6.5075074,202.37135 v -0.10473 h 1.5434028 v 0.10473 q -0.165365,0 -0.2811198,0.0221 -0.1102431,0.0165 -0.1102431,0.14883 0,0.0441 0.027561,0.11575 0.033073,0.0717 0.066146,0.12127 l 0.8157986,1.2237 0.7882377,-1.24575 q 0.0441,-0.0717 0.06063,-0.10473 0.01654,-0.0386 0.01654,-0.0992 0,-0.11576 -0.104731,-0.14883 -0.104731,-0.0331 -0.275608,-0.0331 v -0.10473 z"
         style="stroke-width:0.26458332"
         id="path1634"
         inkscape:connector-curvature="0" />
    </g>
    <circle
       style="opacity:1;fill:#1a160e;fill-opacity:1;stroke:none;stroke-width:1.34206676;stroke-linejoin:round;stroke-miterlimit:4;stroke-dasharray:none;stroke-dashoffset:0;stroke-opacity:1;paint-order:fill markers stroke"
       id="path1054"
       cx="8.4874191"
       cy="259.77017"
       r="5.25" />
    <circle
       style="opacity:1;fill:#1a160e;fill-opacity:1;stroke:none;stroke-width:1.34206676;stroke-linejoin:round;stroke-miterlimit:4;stroke-dasharray:none;stroke-dashoffset:0;stroke-opacity:1;paint-order:fill markers stroke"
       id="path1054-4"
       cx="8.4874191"
       cy="268.21494"
       r="5.25" />
    <circle
       style="opacity:1;fill:#1a160e;fill-opacity:1;stroke:none;stroke-width:1.34206688;stroke-linejoin:round;stroke-miterlimit:4;stroke-dasharray:none;stroke-dashoffset:0;stroke-opacity:1;paint-order:fill markers stroke"
       id="path1054-3"
       cx="8.4874191"
       cy="247.82481"
       r="5.25" />
    <rect
       style="opacity:1;fill:#1a160e;fill-opacity:1;stroke:none;stroke-width:0.7671234;stroke-linejoin:round;stroke-miterlimit:4;stroke-dasharray:none;stroke-dashoffset:0;stroke-opacity:1;paint-order:fill markers stroke"
       id="rect1113"
       width="10.5"
       height="8"
       x="3.2374187"
       y="259.04169" />
    <rect
       style="opacity:1;fill:#1a160e;fill-opacity:1;stroke:none;stroke-width:0.88836384;stroke-linejoin:round;stroke-miterlimit:4;stroke-dasharray:none;stroke-dashoffset:0;stroke-opacity:1;paint-order:fill markers stroke"
       id="rect1130"
       width="1.6036172"
       height="5.0781207"
       x="7.5374217"
       y="251.14529" />
    <g
       aria-label="MODE"
       inkscape:transform-center-x="-1.0690781"
       inkscape:transform-center-y="2.7338664e-06"
       style="font-style:normal;font-variant:normal;font-weight:500;font-stretch:normal;font-size:5.64444447px;line-height:1.25;font-family:aakar;-inkscape-font-specification:'aakar, Medium';font-variant-ligatures:normal;font-variant-caps:normal;font-variant-numeric:normal;font-feature-settings:normal;text-align:start;letter-spacing:0px;word-spacing:0px;writing-mode:lr-tb;text-anchor:start;fill:#b5bed5;fill-opacity:1;stroke:none;stroke-width:0.26458332"
       id="text4585-8-3"
       transform="translate(-0.52916667,-71.437539)">
      <path
         d="m 7.1816223,267.04627 v 0.10473 q -0.2756076,0 -0.3803385,0.0937 -0.099219,0.0882 -0.099219,0.40239 v 2.4474 q 0,0.30868 0.099219,0.40238 0.099219,0.0937 0.3803385,0.0937 v 0.10473 H 5.6382195 v -0.10473 q 0.3252171,0 0.4134115,-0.0992 0.088194,-0.10473 0.088194,-0.45751 v -2.47495 l -1.4111111,3.13641 h -0.07717 l -1.3725261,-3.00963 v 2.19935 q 0,0.42443 0.099219,0.56775 0.099219,0.1378 0.4078993,0.1378 v 0.10473 H 2.4907803 v -0.10473 q 0.325217,0 0.4299479,-0.13229 0.1047309,-0.13229 0.1047309,-0.57326 v -2.23794 q 0,-0.31419 -0.1047309,-0.40239 -0.099219,-0.0937 -0.4189236,-0.0937 v -0.10473 h 1.0914062 l 1.2733073,2.78363 1.2181858,-2.78363 z"
         style="stroke-width:0.26458332"
         id="path875"
         inkscape:connector-curvature="0" />
      <path
         d="m 9.3148255,270.77248 q -0.7661893,0 -1.2733073,-0.50712 -0.5291667,-0.52916 -0.5291667,-1.38906 0,-0.89848 0.5622396,-1.42765 0.507118,-0.47955 1.2402344,-0.47955 0.7386285,0 1.2402345,0.47404 0.562239,0.52917 0.562239,1.43316 0,0.8599 -0.523654,1.38906 -0.501606,0.50712 -1.2788195,0.50712 z m 0,-0.19843 q 0.5016059,0 0.8157985,-0.39688 0.35829,-0.452 0.35829,-1.30638 0,-0.87092 -0.374826,-1.32292 -0.3141931,-0.38034 -0.7992625,-0.38034 -0.4850695,0 -0.7992622,0.38034 -0.3748264,0.452 -0.3748264,1.32292 0,0.85438 0.3582899,1.30638 0.3141928,0.39688 0.8157987,0.39688 z"
         style="stroke-width:0.26458332"
         id="path877"
         inkscape:connector-curvature="0" />
      <path
         d="m 11.392907,270.69531 v -0.10473 q 0.308681,0 0.396875,-0.0992 0.08819,-0.0992 0.08819,-0.39687 v -2.4474 q 0,-0.31419 -0.08819,-0.40239 -0.08268,-0.0937 -0.396875,-0.0937 v -0.10473 h 1.488281 q 1.019749,0 1.593013,0.45199 0.606336,0.47956 0.606336,1.38355 0,0.70005 -0.424435,1.1796 -0.56224,0.6339 -1.697743,0.6339 z m 1.047309,-3.23012 v 2.80017 q 0,0.13781 0.06615,0.18191 0.06615,0.0441 0.264583,0.0441 0.35829,0 0.595313,-0.0551 0.474045,-0.11024 0.749653,-0.41892 0.363802,-0.40239 0.363802,-1.12999 0,-0.38034 -0.115755,-0.68902 -0.115756,-0.3142 -0.396875,-0.56224 -0.220487,-0.19844 -0.468533,-0.28112 -0.308681,-0.10473 -0.799263,-0.10473 -0.170876,0 -0.225998,0.0661 -0.03307,0.0386 -0.03307,0.14883 z"
         style="stroke-width:0.26458332"
         id="path879"
         inkscape:connector-curvature="0" />
      <path
         d="m 18.575242,269.76376 -0.248047,0.93155 h -2.976563 v -0.10473 q 0.275608,0 0.374827,-0.0937 0.10473,-0.0992 0.10473,-0.40238 v -2.4474 q 0,-0.31419 -0.09922,-0.40239 -0.09922,-0.0937 -0.380339,-0.0937 v -0.10473 h 2.926953 v 0.78824 h -0.121267 q -0.06063,-0.36381 -0.220486,-0.46854 -0.15434,-0.11024 -0.617361,-0.11024 H 16.57433 q -0.104731,0 -0.143316,0.0331 -0.03859,0.0276 -0.03859,0.15434 v 1.2237 h 0.848872 q 0.352777,0 0.451996,-0.0992 0.104731,-0.10473 0.15434,-0.42443 h 0.12678 v 1.27882 h -0.12678 q -0.04961,-0.33073 -0.159852,-0.42444 -0.104731,-0.0992 -0.446484,-0.0992 h -0.848872 v 1.35599 q 0,0.17088 0.104731,0.20395 0.110243,0.0276 0.71658,0.0276 0.523654,0 0.771701,-0.14883 0.248047,-0.14883 0.43546,-0.57326 z"
         style="stroke-width:0.26458332"
         id="path881"
         inkscape:connector-curvature="0" />
    </g>
    <g
       aria-label="res"
       style="font-style:normal;font-variant:normal;font-weight:500;font-stretch:normal;font-size:5.64444447px;line-height:1.25;font-family:aakar;-inkscape-font-specification:'aakar, Medium';font-variant-ligatures:normal;font-variant-caps:normal;font-variant-numeric:normal;font-feature-settings:normal;text-align:start;letter-spacing:0px;word-spacing:0px;writing-mode:lr-tb;text-anchor:start;fill:#000000;fill-opacity:1;stroke:none;stroke-width:0.26458332"
       id="text11491-4"
       transform="translate(1.9951185,-53.061212)">
      <path
         d="m 5.4388173,284.7557 v -1.37804 q 0,-0.21497 -0.060634,-0.28663 -0.038585,-0.0441 -0.1322917,-0.0441 -0.055122,0 -0.088194,0.006 -0.033073,0 -0.099219,0.0165 v -0.0882 q 0.4354601,-0.14332 0.8157986,-0.29766 l 0.027561,0.011 v 0.49059 q 0.1984375,-0.28664 0.3472656,-0.39137 0.1543403,-0.11024 0.3197049,-0.11024 0.2976562,0 0.2976562,0.29766 0,0.10473 -0.060634,0.17638 -0.055122,0.0661 -0.1488282,0.0661 -0.1047309,0 -0.2149739,-0.0937 -0.1047309,-0.0992 -0.1653646,-0.0992 -0.099219,0 -0.2370226,0.15986 -0.1378038,0.15985 -0.1378038,0.29214 v 1.24024 q 0,0.25907 0.1267795,0.34726 0.099219,0.0661 0.3417535,0.0661 v 0.0827 H 5.0474544 v -0.0827 q 0.2480469,-0.0441 0.3086806,-0.0937 0.082682,-0.0661 0.082682,-0.28663 z"
         style="font-style:normal;font-variant:normal;font-weight:500;font-stretch:normal;font-size:5.64444447px;font-family:aakar;-inkscape-font-specification:'aakar, Medium';font-variant-ligatures:normal;font-variant-caps:normal;font-variant-numeric:normal;font-feature-settings:normal;text-align:start;writing-mode:lr-tb;text-anchor:start;fill:#b5bed5;fill-opacity:1;stroke-width:0.26458332"
         id="path932"
         inkscape:connector-curvature="0" />
      <path
         d="m 9.1043988,284.31473 0.088195,0.0386 q -0.093707,0.28663 -0.3031684,0.52366 -0.3527778,0.39687 -0.865408,0.39687 -0.468533,0 -0.7496528,-0.32522 -0.2811198,-0.32521 -0.2811198,-0.9095 0,-0.68902 0.396875,-1.05833 0.3197049,-0.29766 0.7276042,-0.29766 0.4134114,0 0.6559462,0.23151 0.2700955,0.25356 0.3141927,0.77721 h -1.71428 q 0,0.66146 0.2976562,0.96463 0.2315104,0.23702 0.5787761,0.23702 0.3197048,0 0.5622395,-0.20946 0.1378039,-0.12127 0.2921441,-0.36931 z m -1.7142795,-0.79927 h 1.1355035 q -0.044097,-0.28663 -0.1157552,-0.41341 -0.1267795,-0.22048 -0.4134115,-0.22048 -0.2480468,0 -0.396875,0.14331 -0.1433159,0.13781 -0.2094618,0.49058 z"
         style="font-style:normal;font-variant:normal;font-weight:500;font-stretch:normal;font-size:5.64444447px;font-family:aakar;-inkscape-font-specification:'aakar, Medium';font-variant-ligatures:normal;font-variant-caps:normal;font-variant-numeric:normal;font-feature-settings:normal;text-align:start;writing-mode:lr-tb;text-anchor:start;fill:#b5bed5;fill-opacity:1;stroke-width:0.26458332"
         id="path934"
         inkscape:connector-curvature="0" />
      <path
         d="m 11.039165,283.4879 h -0.08268 q -0.08268,-0.39136 -0.259071,-0.55121 -0.137804,-0.12678 -0.352778,-0.12678 -0.203949,0 -0.314192,0.11575 -0.1047313,0.11025 -0.1047313,0.24254 0,0.1378 0.060634,0.23151 0.066146,0.0937 0.1763883,0.15985 l 0.595313,0.35278 q 0.237022,0.14332 0.330729,0.25907 0.132292,0.15985 0.132292,0.39136 0,0.33624 -0.264584,0.53468 -0.23151,0.17639 -0.534679,0.17639 -0.132291,0 -0.352777,-0.0496 -0.2204862,-0.0496 -0.286632,-0.0496 -0.07717,0 -0.1212673,0.0661 h -0.071658 v -0.8599 h 0.088194 q 0.07717,0.34727 0.1763889,0.4961 0.1819014,0.2756 0.5346794,0.2756 0.170876,0 0.292144,-0.0827 0.15434,-0.10473 0.15434,-0.3197 0,-0.24805 -0.286632,-0.4079 l -0.319705,-0.1819 q -0.4023872,-0.226 -0.5236545,-0.40239 -0.1212674,-0.1819 -0.1212674,-0.40239 0,-0.26458 0.1819011,-0.45199 0.2149739,-0.22049 0.5898008,-0.22049 0.121267,0 0.248046,0.0386 0.12678,0.0331 0.259072,0.0717 0.04961,0 0.09371,-0.0606 h 0.06063 z"
         style="font-style:normal;font-variant:normal;font-weight:500;font-stretch:normal;font-size:5.64444447px;font-family:aakar;-inkscape-font-specification:'aakar, Medium';font-variant-ligatures:normal;font-variant-caps:normal;font-variant-numeric:normal;font-feature-settings:normal;text-align:start;writing-mode:lr-tb;text-anchor:start;fill:#b5bed5;fill-opacity:1;stroke-width:0.26458332"
         id="path936"
         inkscape:connector-curvature="0" />
    </g>
    <g
       aria-label="speed"
       inkscape:transform-center-x="-1.0690781"
       inkscape:transform-center-y="2.7338664e-06"
       style="font-style:normal;font-variant:normal;font-weight:500;font-stretch:normal;font-size:5.64444447px;line-height:1.25;font-family:aakar;-inkscape-font-specification:'aakar, Medium';font-variant-ligatures:normal;font-variant-caps:normal;font-variant-numeric:normal;font-feature-settings:normal;text-align:start;letter-spacing:0px;word-spacing:0px;writing-mode:lr-tb;text-anchor:start;fill:#b5bed5;fill-opacity:1;stroke:none;stroke-width:0.26458332"
       id="text4585-8-3-4">
      <path
         d="m 5.333458,214.66701 h -0.082682 q -0.082682,-0.39136 -0.2590712,-0.55121 -0.1378038,-0.12678 -0.3527778,-0.12678 -0.2039497,0 -0.3141927,0.11575 -0.1047309,0.11024 -0.1047309,0.24254 0,0.1378 0.060634,0.23151 0.066146,0.0937 0.1763889,0.15985 l 0.5953125,0.35278 q 0.2370225,0.14331 0.3307291,0.25907 0.1322917,0.15985 0.1322917,0.39136 0,0.33624 -0.2645833,0.53468 -0.2315105,0.17639 -0.5346789,0.17639 -0.1322916,0 -0.3527777,-0.0496 -0.2204862,-0.0496 -0.286632,-0.0496 -0.07717,0 -0.1212673,0.0661 h -0.071658 v -0.8599 h 0.088194 q 0.07717,0.34727 0.1763889,0.49609 0.181901,0.27561 0.5346788,0.27561 0.1708768,0 0.2921441,-0.0827 0.1543403,-0.10473 0.1543403,-0.31971 0,-0.24804 -0.2866319,-0.4079 l -0.3197049,-0.1819 q -0.4023872,-0.22599 -0.5236545,-0.40238 -0.1212674,-0.1819 -0.1212674,-0.40239 0,-0.26458 0.1819011,-0.452 0.2149739,-0.22048 0.5898003,-0.22048 0.1212674,0 0.2480469,0.0386 0.1267795,0.0331 0.2590712,0.0717 0.049609,0 0.093707,-0.0606 h 0.060634 z"
         style="stroke-width:0.26458332"
         id="path964" />
      <path
         d="m 6.1547688,217.11992 v -2.57969 q 0,-0.14883 -0.011024,-0.19292 -0.033073,-0.12127 -0.1984375,-0.12127 l -0.1543403,0.006 v -0.0882 q 0.396875,-0.12678 0.79375,-0.28112 l 0.033073,0.011 v 0.40239 l 0.011024,0.011 q 0.1267795,-0.16536 0.2811198,-0.27009 0.2315104,-0.15434 0.5126302,-0.15434 0.3858507,0 0.6449219,0.32521 0.2645833,0.31971 0.2645833,0.8599 0,0.52917 -0.2921441,0.94258 -0.3307291,0.46302 -0.8654079,0.46302 -0.1708768,0 -0.2976563,-0.0496 -0.1212674,-0.0496 -0.2590712,-0.18741 v 0.8654 q 0,0.25908 0.093707,0.33625 0.093707,0.0772 0.3913629,0.0772 v 0.0992 h -1.333941 v -0.0937 q 0.253559,0 0.3307292,-0.0992 0.055122,-0.0717 0.055122,-0.28112 z m 0.4630208,-2.56315 v 1.35599 q 0,0.10473 0.1763889,0.23702 0.1763889,0.12678 0.3858507,0.12678 0.3307292,0 0.5126302,-0.30317 0.1653646,-0.27009 0.1653646,-0.76068 0,-0.44097 -0.1874132,-0.7276 -0.181901,-0.29214 -0.5126302,-0.29214 -0.1653646,0 -0.3417535,0.10473 -0.1763889,0.10473 -0.1984375,0.25907 z"
         style="stroke-width:0.26458332"
         id="path966" />
      <path
         d="m 10.746392,215.49383 0.08819,0.0386 q -0.09371,0.28663 -0.303168,0.52365 -0.352778,0.39688 -0.8654079,0.39688 -0.468533,0 -0.7496528,-0.32522 -0.2811198,-0.32522 -0.2811198,-0.9095 0,-0.68902 0.396875,-1.05834 0.3197048,-0.29765 0.7276042,-0.29765 0.4134113,0 0.6559463,0.23151 0.270095,0.25356 0.314193,0.77721 h -1.71428 q 0,0.66146 0.2976563,0.96463 0.2315104,0.23702 0.578776,0.23702 0.3197047,0 0.5622397,-0.20946 0.137804,-0.12127 0.292144,-0.36932 z m -1.7142795,-0.79926 h 1.1355035 q -0.0441,-0.28663 -0.115755,-0.41341 -0.1267798,-0.22049 -0.4134117,-0.22049 -0.2480469,0 -0.396875,0.14332 -0.143316,0.1378 -0.2094618,0.49058 z"
         style="stroke-width:0.26458332"
         id="path968" />
      <path
         d="m 13.193788,215.49383 0.08819,0.0386 q -0.09371,0.28663 -0.303168,0.52365 -0.352778,0.39688 -0.865408,0.39688 -0.468533,0 -0.749653,-0.32522 -0.28112,-0.32522 -0.28112,-0.9095 0,-0.68902 0.396875,-1.05834 0.319705,-0.29765 0.727604,-0.29765 0.413412,0 0.655947,0.23151 0.270095,0.25356 0.314192,0.77721 h -1.714279 q 0,0.66146 0.297656,0.96463 0.23151,0.23702 0.578776,0.23702 0.319705,0 0.56224,-0.20946 0.137804,-0.12127 0.292144,-0.36932 z m -1.71428,-0.79926 h 1.135504 q -0.0441,-0.28663 -0.115755,-0.41341 -0.12678,-0.22049 -0.413412,-0.22049 -0.248047,0 -0.396875,0.14332 -0.143316,0.1378 -0.209462,0.49058 z"
         style="stroke-width:0.26458332"
         id="path970" />
      <path
         d="m 15.266357,215.83559 v -1.2678 q -0.02756,-0.26458 -0.192925,-0.4079 -0.165365,-0.14331 -0.374827,-0.14331 -0.270095,0 -0.457508,0.226 -0.225998,0.2756 -0.225998,0.79375 0,0.56775 0.242534,0.87092 0.209462,0.25907 0.518143,0.25907 0.181901,0 0.319704,-0.0882 0.137804,-0.0937 0.170877,-0.24253 z m 0.832335,0.24253 v 0.0882 l -0.810286,0.28663 -0.02205,-0.0165 v -0.33624 q -0.143316,0.18741 -0.330729,0.2701 -0.181901,0.0827 -0.391363,0.0827 -0.457508,0 -0.733116,-0.33624 -0.270096,-0.33624 -0.270096,-0.89848 0,-0.54571 0.336242,-0.94809 0.341753,-0.4079 0.804774,-0.4079 0.181901,0 0.308681,0.0551 0.126779,0.0496 0.275607,0.1819 v -0.8599 q 0,-0.15985 -0.02756,-0.20395 -0.04961,-0.0772 -0.214974,-0.0772 l -0.132291,0.006 v -0.0882 q 0.28112,-0.0717 0.424436,-0.11575 0.148828,-0.0441 0.38585,-0.12678 l 0.02756,0.011 v 3.12539 q 0,0.19293 0.0441,0.23702 0.06615,0.0717 0.325217,0.0717 z"
         style="stroke-width:0.26458332"
         id="path972" />
    </g>
  </g>
</svg>
