<?xml version="1.0" encoding="UTF-8" standalone="no"?>
<!-- Created with Inkscape (http://www.inkscape.org/) -->

<svg
   width="60.959999mm"
   height="128.5mm"
   viewBox="0 0 60.96 128.5"
   version="1.1"
   id="svg1"
   inkscape:version="1.4.2 (ebf0e940d0, 2025-05-08)"
   sodipodi:docname="PreciseDelay.svg"
   xmlns:inkscape="http://www.inkscape.org/namespaces/inkscape"
   xmlns:sodipodi="http://sodipodi.sourceforge.net/DTD/sodipodi-0.dtd"
   xmlns="http://www.w3.org/2000/svg"
   xmlns:svg="http://www.w3.org/2000/svg">
  <sodipodi:namedview
     id="namedview1"
     pagecolor="#ffffff"
     bordercolor="#000000"
     borderopacity="0.25"
     inkscape:showpageshadow="2"
     inkscape:pageopacity="0.0"
     inkscape:pagecheckerboard="0"
     inkscape:deskcolor="#d1d1d1"
     inkscape:document-units="mm"
     inkscape:zoom="0.90688833"
     inkscape:cx="171.46543"
     inkscape:cy="200.13489"
     inkscape:window-width="1366"
     inkscape:window-height="711"
     inkscape:window-x="0"
     inkscape:window-y="0"
     inkscape:window-maximized="1"
     inkscape:current-layer="layer2"
     showgrid="false" />
  <defs
     id="defs1" />
  <g
     inkscape:label="Layer 1"
     inkscape:groupmode="layer"
     id="layer1">
    <rect
       style="fill:#4a412a;fill-opacity:1;stroke-width:0.458271"
       id="rect1"
       width="60.959999"
       height="128.5"
       x="0.29174849"
       y="0.29174837" />
    <circle
       style="fill:#1a160e;fill-opacity:1;stroke-width:0.247353"
       id="path1"
       cx="10.75"
       cy="25.25"
       r="5.25" />
    <circle
       style="fill:#1a160e;fill-opacity:1;stroke-width:0.247353"
       id="path1-3"
       cx="50.709999"
       cy="25.25"
       r="5.25" />
    <rect
       style="fill:#1a160e;fill-opacity:1;stroke-width:0.196182"
       id="rect2"
       width="37.343811"
       height="1.604"
       x="12"
       y="24.700001" />
    <circle
       style="fill:#1a160e;fill-opacity:1;stroke-width:0.247353"
       id="path1-6"
       cx="10.75"
       cy="43.25"
       r="5.25" />
    <circle
       style="fill:#1a160e;fill-opacity:1;stroke-width:0.247353"
       id="path1-3-8"
       cx="50.709999"
       cy="43.25"
       r="5.25" />
    <rect
       style="fill:#1a160e;fill-opacity:1;stroke-width:0.196182"
       id="rect2-8"
       width="37.343811"
       height="1.604"
       x="12"
       y="42.700001" />
    <circle
       style="fill:#1a160e;fill-opacity:1;stroke-width:0.247353"
       id="path1-9"
       cx="10.75"
       cy="61.25"
       r="5.25" />
    <circle
       style="fill:#1a160e;fill-opacity:1;stroke-width:0.247353"
       id="path1-3-2"
       cx="50.709999"
       cy="61.25"
       r="5.25" />
    <rect
       style="fill:#1a160e;fill-opacity:1;stroke-width:0.196182"
       id="rect2-0"
       width="37.343811"
       height="1.604"
       x="12"
       y="60.700005" />
    <circle
       style="fill:#1a160e;fill-opacity:1;stroke-width:0.247353"
       id="path1-6-6"
       cx="10.75"
       cy="79.25"
       r="5.25" />
    <circle
       style="fill:#1a160e;fill-opacity:1;stroke-width:0.247353"
       id="path1-3-8-8"
       cx="50.709999"
       cy="79.25"
       r="5.25" />
    <rect
       style="fill:#1a160e;fill-opacity:1;stroke-width:0.196182"
       id="rect2-8-9"
       width="37.343811"
       height="1.604"
       x="12"
       y="78.700005" />
    <circle
       style="fill:#1a160e;fill-opacity:1;stroke-width:0.247353"
       id="path1-95"
       cx="10.75"
       cy="97.25"
       r="5.25" />
    <circle
       style="fill:#1a160e;fill-opacity:1;stroke-width:0.247353"
       id="path1-3-0"
       cx="50.709999"
       cy="97.25"
       r="5.25" />
    <rect
       style="fill:#1a160e;fill-opacity:1;stroke-width:0.196182"
       id="rect2-4"
       width="37.343811"
       height="1.604"
       x="12"
       y="96.699997" />
    <circle
       style="fill:#1a160e;fill-opacity:1;stroke-width:0.247353"
       id="path1-6-8"
       cx="10.75"
       cy="115.25"
       r="5.25" />
    <circle
       style="fill:#1a160e;fill-opacity:1;stroke-width:0.247353"
       id="path1-3-8-7"
       cx="50.709999"
       cy="115.25"
       r="5.25" />
    <rect
       style="fill:#1a160e;fill-opacity:1;stroke-width:0.196182"
       id="rect2-8-1"
       width="37.343811"
       height="1.604"
       x="12"
       y="114.7" />
    <path
       style="font-size:5.64444px;font-family:Serif;-inkscape-font-specification:Serif;fill:#b5bed5;stroke-width:0.264583"
       d="m 8.3965382,13.322675 h 0.5236541 v 0.292144 H 7.313401 V 13.322675 H 7.8370551 V 9.7948996 H 7.313401 v -0.2949 h 1.6067913 v 0.2949 H 8.3965382 Z m 1.1106979,0.292144 V 13.322675 H 10.061207 V 9.7948996 H 9.5072361 v -0.2949 h 1.0555769 l 2.466686,3.2466554 V 9.7948996 h -0.551215 v -0.2949 h 1.444183 v 0.2949 h -0.553971 v 3.8998454 h -0.333485 l -2.634807,-3.467142 v 3.095072 h 0.553971 v 0.292144 z"
       id="text2"
       aria-label="IN" />
    <path
       d="m 46.077382,13.474259 q 0.675238,0 1.019747,-0.46302 0.34451,-0.465777 0.34451,-1.375282 0,-0.91226 -0.34451,-1.375281 -0.344509,-0.4657762 -1.019747,-0.4657762 -0.677994,0 -1.022504,0.4657762 -0.344509,0.463021 -0.344509,1.375281 0,0.909505 0.344509,1.375282 0.34451,0.46302 1.022504,0.46302 z m 0,0.2949 q -0.418923,0 -0.771701,-0.137804 -0.350021,-0.137803 -0.617361,-0.405143 -0.30868,-0.30868 -0.460264,-0.700043 -0.148828,-0.391362 -0.148828,-0.890212 0,-0.498849 0.148828,-0.890212 0.151584,-0.394118 0.460264,-0.702798 0.270096,-0.2700958 0.617361,-0.4051434 0.347265,-0.1378037 0.771701,-0.1378037 0.895724,0 1.446939,0.5870441 0.551215,0.587044 0.551215,1.548913 0,0.493338 -0.151584,0.890212 -0.151584,0.394119 -0.460265,0.700043 -0.270095,0.270096 -0.61736,0.407899 -0.347266,0.135048 -0.768945,0.135048 z m 3.103339,-3.8998452 h -0.52641 V 9.5744139 h 1.609548 v 0.2948999 h -0.526411 v 2.1276892 q 0,0.788237 0.256315,1.099674 0.259071,0.311436 0.890212,0.311436 0.631141,0 0.887456,-0.311436 0.259071,-0.311437 0.259071,-1.099674 V 9.8693138 h -0.52641 V 9.5744139 h 1.389061 v 0.2948999 h -0.523654 v 2.1828112 q 0,0.939821 -0.361045,1.328428 -0.361046,0.388606 -1.226453,0.388606 -0.865408,0 -1.234722,-0.391363 -0.366558,-0.391362 -0.366558,-1.325671 z m 5.043616,3.8199192 v -0.292144 h 0.526411 V 9.9023867 H 53.540831 V 10.544552 H 53.201834 V 9.5744139 h 3.654554 V 10.544552 H 56.517391 V 9.9023867 h -1.209916 v 3.4947023 h 0.52641 v 0.292144 z"
       id="text3"
       style="font-size:5.64444px;font-family:Serif;-inkscape-font-specification:Serif;fill:#b5bed5;stroke-width:0.264583"
       aria-label="OUT" />
    <path
       d="m 22.108719,10.822675 h 0.51263 q 0.802018,0 1.229209,-0.457509 0.429948,-0.457508 0.429948,-1.311891 0,-0.854383 -0.427192,-1.3063792 -0.427191,-0.4519962 -1.231965,-0.4519962 h -0.51263 z m -1.083137,0.292144 v -0.292144 h 0.523654 V 7.2948996 h -0.523654 v -0.2949 h 1.637108 q 1.063845,0 1.656401,0.5429467 0.595312,0.5429466 0.595312,1.5103287 0,0.970138 -0.595312,1.515841 -0.595312,0.545703 -1.656401,0.545703 z m 4.525474,0 V 10.822675 H 26.07471 V 7.2948996 h -0.523654 v -0.2949 h 3.312801 V 7.9150163 H 28.52486 V 7.3389968 h -1.890667 v 1.3780371 h 1.347721 V 8.201648 h 0.338997 V 9.5686609 H 27.981914 V 9.053275 h -1.347721 v 1.722546 h 1.934764 v -0.576019 h 0.338998 v 0.915017 z m 4.120331,0 v -0.292144 h 0.523655 V 7.2948996 h -0.523655 v -0.2949 h 1.606792 v 0.2949 h -0.523654 v 3.4809214 h 1.879642 v -0.689018 h 0.338997 v 1.028016 z m 4.566815,-1.4910366 h 1.510329 L 34.993366,7.6669696 Z m -1.163063,1.4910366 v -0.292144 h 0.361045 l 1.466232,-3.8226754 h 0.46302 l 1.468988,3.8226754 h 0.405143 v 0.292144 h -1.496548 v -0.292144 h 0.457508 L 35.856018,9.9186823 h -1.730815 l -0.344509,0.9039927 h 0.451996 v 0.292144 z m 4.947154,0 v -0.292144 h 0.52641 V 9.3426628 l -1.27055,-2.0477632 h -0.38585 v -0.2949 h 1.529621 v 0.2949 h -0.479557 l 1.028016,1.6646689 1.028015,-1.6646689 h -0.46302 v -0.2949 h 1.196136 v 0.2949 H 40.342908 L 39.10543,9.2902974 v 1.5323776 h 0.52641 v 0.292144 z"
       id="text4"
       style="font-size:5.64444px;font-family:Serif;-inkscape-font-specification:Serif;fill:#b5bed5;stroke-width:0.264583"
       aria-label="DELAY" />
  </g>
  <g
     inkscape:groupmode="layer"
     id="layer2"
     inkscape:label="components"
     style="display:none">
    <circle
       style="fill:#00ff00;fill-opacity:1;stroke-width:0.481784"
       id="path4-1"
       cx="10.75"
       cy="61.25"
       r="4.25"
       inkscape:label="input 3" />
    <circle
       style="fill:#00ff00;fill-opacity:1;stroke-width:0.481784"
       id="path4"
       cx="10.75"
       cy="25.25"
       r="4.25"
       inkscape:label="input 1" />
    <circle
       style="fill:#00ff00;fill-opacity:1;stroke-width:0.481784"
       id="path4-2"
       cx="10.75"
       cy="43.25"
       r="4.25"
       inkscape:label="input 2" />
    <circle
       style="fill:#00ff00;fill-opacity:1;stroke-width:0.481784"
       id="path4-1-7"
       cx="10.75"
       cy="115.25"
       r="4.25"
       inkscape:label="input 6" />
    <circle
       style="fill:#00ff00;fill-opacity:1;stroke-width:0.481784"
       id="path4-11"
       cx="10.75"
       cy="79.25"
       r="4.25"
       inkscape:label="input 4" />
    <circle
       style="fill:#00ff00;fill-opacity:1;stroke-width:0.481784"
       id="path4-2-5"
       cx="10.75"
       cy="97.25"
       r="4.25"
       inkscape:label="input 5" />
    <circle
       style="fill:#0000ff;fill-opacity:1;stroke-width:0.481784"
       id="path4-1-5"
       cx="50.709999"
       cy="61.249996"
       r="4.25"
       inkscape:label="output 3" />
    <circle
       style="fill:#0000ff;fill-opacity:1;stroke-width:0.481784"
       id="path4-0"
       cx="50.709999"
       cy="25.25"
       r="4.25"
       inkscape:label="output 1" />
    <circle
       style="fill:#0000ff;fill-opacity:1;stroke-width:0.481784"
       id="path4-2-9"
       cx="50.709999"
       cy="43.25"
       r="4.25"
       inkscape:label="output 2" />
    <circle
       style="fill:#0000ff;fill-opacity:1;stroke-width:0.481784"
       id="path4-1-7-6"
       cx="50.709999"
       cy="115.25"
       r="4.25"
       inkscape:label="output 6" />
    <circle
       style="fill:#0000ff;fill-opacity:1;stroke-width:0.481784"
       id="path4-11-3"
       cx="50.709999"
       cy="79.25"
       r="4.25"
       inkscape:label="output 4" />
    <circle
       style="fill:#0000ff;fill-opacity:1;stroke-width:0.481784"
       id="path4-2-5-8"
       cx="50.709999"
       cy="97.25"
       r="4.25"
       inkscape:label="output 5" />
    <circle
       style="fill:#ff0000;fill-opacity:1;stroke-width:0.481784"
       id="path4-1-59"
       cx="30.73"
       cy="61.25"
       r="4.25"
       inkscape:label="delay 3" />
    <circle
       style="fill:#ff0000;fill-opacity:1;stroke-width:0.481784"
       id="path4-8"
       cx="30.73"
       cy="25.25"
       r="4.25"
       inkscape:label="delay 1" />
    <circle
       style="fill:#ff0000;fill-opacity:1;stroke-width:0.481784"
       id="path4-2-4"
       cx="30.73"
       cy="43.25"
       r="4.25"
       inkscape:label="delay 2" />
    <circle
       style="fill:#ff0000;fill-opacity:1;stroke-width:0.481784"
       id="path4-1-7-8"
       cx="30.73"
       cy="115.25"
       r="4.25"
       inkscape:label="delay 6" />
    <circle
       style="fill:#ff0000;fill-opacity:1;stroke-width:0.481784"
       id="path4-11-1"
       cx="30.73"
       cy="79.25"
       r="4.25"
       inkscape:label="delay 4" />
    <circle
       style="fill:#ff0000;fill-opacity:1;stroke-width:0.481784"
       id="path4-2-5-0"
       cx="30.73"
       cy="97.25"
       r="4.25"
       inkscape:label="delay 5" />
  </g>
</svg>
